<?xml version="1.0" standalone="no"?><!-- Generator: Gravit.io --><svg xmlns="http://www.w3.org/2000/svg" xmlns:xlink="http://www.w3.org/1999/xlink" style="isolation:isolate" viewBox="0 0 760.5 124.742" width="760.5" height="124.742"><g><path d=" M 211.662 49.142 L 211.527 54.039 L 211.527 54.039 Q 209.82 53.724 207.889 53.724 L 207.889 53.724 L 207.889 53.724 Q 202.857 53.724 199.376 56.532 L 199.376 56.532 L 199.376 56.532 Q 195.895 59.339 194.412 64.685 L 194.412 64.685 L 194.412 98.062 L 189.066 98.062 L 189.066 49.457 L 194.322 49.457 L 194.412 57.183 L 194.412 57.183 Q 198.68 48.558 208.113 48.558 L 208.113 48.558 L 208.113 48.558 Q 210.359 48.558 211.662 49.142 L 211.662 49.142 L 211.662 49.142 Z  M 233.84 98.96 L 233.84 98.96 L 233.84 98.96 Q 227.641 98.96 222.632 95.906 L 222.632 95.906 L 222.632 95.906 Q 217.623 92.851 214.838 87.393 L 214.838 87.393 L 214.838 87.393 Q 212.053 81.935 212.053 75.152 L 212.053 75.152 L 212.053 73.22 L 212.053 73.22 Q 212.053 66.212 214.771 60.597 L 214.771 60.597 L 214.771 60.597 Q 217.488 54.982 222.34 51.77 L 222.34 51.77 L 222.34 51.77 Q 227.191 48.558 232.852 48.558 L 232.852 48.558 L 232.852 48.558 Q 241.701 48.558 246.89 54.6 L 246.89 54.6 L 246.89 54.6 Q 252.078 60.642 252.078 71.109 L 252.078 71.109 L 252.078 74.119 L 217.398 74.119 L 217.398 75.152 L 217.398 75.152 Q 217.398 83.417 222.138 88.92 L 222.138 88.92 L 222.138 88.92 Q 226.877 94.423 234.064 94.423 L 234.064 94.423 L 234.064 94.423 Q 238.377 94.423 241.679 92.851 L 241.679 92.851 L 241.679 92.851 Q 244.98 91.279 247.676 87.82 L 247.676 87.82 L 251.045 90.38 L 251.045 90.38 Q 245.115 98.96 233.84 98.96 Z  M 232.852 53.14 L 232.852 53.14 L 232.852 53.14 Q 226.787 53.14 222.632 57.587 L 222.632 57.587 L 222.632 57.587 Q 218.477 62.035 217.578 69.537 L 217.578 69.537 L 246.732 69.537 L 246.732 68.953 L 246.732 68.953 Q 246.508 61.945 242.734 57.542 L 242.734 57.542 L 242.734 57.542 Q 238.961 53.14 232.852 53.14 Z  M 293.977 98.062 L 288.227 98.062 L 288.227 98.062 Q 287.418 95.771 287.193 91.279 L 287.193 91.279 L 287.193 91.279 Q 284.363 94.962 279.983 96.961 L 279.983 96.961 L 279.983 96.961 Q 275.604 98.96 270.707 98.96 L 270.707 98.96 L 270.707 98.96 Q 263.699 98.96 259.364 95.052 L 259.364 95.052 L 259.364 95.052 Q 255.029 91.144 255.029 85.169 L 255.029 85.169 L 255.029 85.169 Q 255.029 78.072 260.937 73.939 L 260.937 73.939 L 260.937 73.939 Q 266.844 69.806 277.4 69.806 L 277.4 69.806 L 287.148 69.806 L 287.148 64.281 L 287.148 64.281 Q 287.148 59.07 283.937 56.083 L 283.937 56.083 L 283.937 56.083 Q 280.725 53.095 274.57 53.095 L 274.57 53.095 L 274.57 53.095 Q 268.955 53.095 265.271 55.97 L 265.271 55.97 L 265.271 55.97 Q 261.588 58.845 261.588 62.888 L 261.588 62.888 L 256.197 62.843 L 256.197 62.843 Q 256.197 57.048 261.588 52.803 L 261.588 52.803 L 261.588 52.803 Q 266.979 48.558 274.84 48.558 L 274.84 48.558 L 274.84 48.558 Q 282.971 48.558 287.665 52.624 L 287.665 52.624 L 287.665 52.624 Q 292.359 56.689 292.494 63.966 L 292.494 63.966 L 292.494 86.966 L 292.494 86.966 Q 292.494 94.019 293.977 97.523 L 293.977 97.523 L 293.977 98.062 L 293.977 98.062 Z  M 271.336 94.199 L 271.336 94.199 L 271.336 94.199 Q 276.727 94.199 280.972 91.593 L 280.972 91.593 L 280.972 91.593 Q 285.217 88.988 287.148 84.63 L 287.148 84.63 L 287.148 73.939 L 277.535 73.939 L 277.535 73.939 Q 269.494 74.029 264.957 76.881 L 264.957 76.881 L 264.957 76.881 Q 260.42 79.734 260.42 84.72 L 260.42 84.72 L 260.42 84.72 Q 260.42 88.808 263.452 91.503 L 263.452 91.503 L 263.452 91.503 Q 266.484 94.199 271.336 94.199 Z  M 299.668 73.939 L 299.668 73.31 L 299.668 73.31 Q 299.668 61.99 304.722 55.274 L 304.722 55.274 L 304.722 55.274 Q 309.775 48.558 318.445 48.558 L 318.445 48.558 L 318.445 48.558 Q 328.283 48.558 333.449 56.33 L 333.449 56.33 L 333.449 29.062 L 338.795 29.062 L 338.795 98.062 L 333.764 98.062 L 333.539 91.593 L 333.539 91.593 Q 328.373 98.96 318.355 98.96 L 318.355 98.96 L 318.355 98.96 Q 309.955 98.96 304.812 92.2 L 304.812 92.2 L 304.812 92.2 Q 299.668 85.439 299.668 73.939 L 299.668 73.939 L 299.668 73.939 Z  M 305.104 74.253 L 305.104 74.253 L 305.104 74.253 Q 305.104 83.552 308.832 88.92 L 308.832 88.92 L 308.832 88.92 Q 312.561 94.289 319.344 94.289 L 319.344 94.289 L 319.344 94.289 Q 329.271 94.289 333.449 85.529 L 333.449 85.529 L 333.449 62.708 L 333.449 62.708 Q 329.271 53.23 319.434 53.23 L 319.434 53.23 L 319.434 53.23 Q 312.65 53.23 308.877 58.553 L 308.877 58.553 L 308.877 58.553 Q 305.104 63.876 305.104 74.253 Z  M 377.055 85.708 L 377.055 85.708 L 377.055 85.708 Q 377.055 81.71 373.843 79.285 L 373.843 79.285 L 373.843 79.285 Q 370.631 76.859 364.162 75.489 L 364.162 75.489 L 364.162 75.489 Q 357.693 74.119 354.122 72.344 L 354.122 72.344 L 354.122 72.344 Q 350.551 70.57 348.821 68.009 L 348.821 68.009 L 348.821 68.009 Q 347.092 65.449 347.092 61.81 L 347.092 61.81 L 347.092 61.81 Q 347.092 56.06 351.898 52.309 L 351.898 52.309 L 351.898 52.309 Q 356.705 48.558 364.207 48.558 L 364.207 48.558 L 364.207 48.558 Q 372.338 48.558 377.257 52.579 L 377.257 52.579 L 377.257 52.579 Q 382.176 56.599 382.176 63.068 L 382.176 63.068 L 376.785 63.068 L 376.785 63.068 Q 376.785 58.8 373.214 55.97 L 373.214 55.97 L 373.214 55.97 Q 369.643 53.14 364.207 53.14 L 364.207 53.14 L 364.207 53.14 Q 358.906 53.14 355.694 55.499 L 355.694 55.499 L 355.694 55.499 Q 352.482 57.857 352.482 61.63 L 352.482 61.63 L 352.482 61.63 Q 352.482 65.269 355.155 67.268 L 355.155 67.268 L 355.155 67.268 Q 357.828 69.267 364.903 70.929 L 364.903 70.929 L 364.903 70.929 Q 371.979 72.591 375.505 74.478 L 375.505 74.478 L 375.505 74.478 Q 379.031 76.365 380.738 79.015 L 380.738 79.015 L 380.738 79.015 Q 382.445 81.666 382.445 85.439 L 382.445 85.439 L 382.445 85.439 Q 382.445 91.593 377.481 95.277 L 377.481 95.277 L 377.481 95.277 Q 372.518 98.96 364.521 98.96 L 364.521 98.96 L 364.521 98.96 Q 356.031 98.96 350.753 94.85 L 350.753 94.85 L 350.753 94.85 Q 345.475 90.74 345.475 84.451 L 345.475 84.451 L 350.865 84.451 L 350.865 84.451 Q 351.18 89.167 354.841 91.795 L 354.841 91.795 L 354.841 91.795 Q 358.502 94.423 364.521 94.423 L 364.521 94.423 L 364.521 94.423 Q 370.137 94.423 373.596 91.953 L 373.596 91.953 L 373.596 91.953 Q 377.055 89.482 377.055 85.708 Z  M 5.436 73.894 L 5.436 73.265 L 5.436 73.265 Q 5.436 61.63 10.332 55.094 L 10.332 55.094 L 10.332 55.094 Q 15.229 48.558 23.764 48.558 L 23.764 48.558 L 23.764 48.558 Q 29.199 48.558 33.422 51.051 L 33.422 51.051 L 33.422 51.051 Q 37.645 53.544 40.205 58.351 L 40.205 58.351 L 40.205 49.457 L 42.676 49.457 L 42.676 97.208 L 42.676 97.208 Q 42.676 106.822 37.734 112.235 L 37.734 112.235 L 37.734 112.235 Q 32.793 117.648 24.303 117.648 L 24.303 117.648 L 24.303 117.648 Q 19.406 117.648 15.341 115.537 L 15.341 115.537 L 15.341 115.537 Q 11.275 113.425 8.4 109.472 L 8.4 109.472 L 10.107 107.855 L 10.107 107.855 Q 12.938 111.449 16.307 113.358 L 16.307 113.358 L 16.307 113.358 Q 19.676 115.267 24.213 115.267 L 24.213 115.267 L 24.213 115.267 Q 31.715 115.267 35.893 110.708 L 35.893 110.708 L 35.893 110.708 Q 40.07 106.148 40.205 97.837 L 40.205 97.837 L 40.205 90.38 L 40.205 90.38 Q 37.689 94.513 33.399 96.737 L 33.399 96.737 L 33.399 96.737 Q 29.109 98.96 23.674 98.96 L 23.674 98.96 L 23.674 98.96 Q 15.229 98.96 10.332 92.267 L 10.332 92.267 L 10.332 92.267 Q 5.436 85.574 5.436 73.894 L 5.436 73.894 L 5.436 73.894 Z  M 7.906 74.208 L 7.906 74.208 L 7.906 74.208 Q 7.906 84.63 12.039 90.583 L 12.039 90.583 L 12.039 90.583 Q 16.172 96.535 23.629 96.535 L 23.629 96.535 L 23.629 96.535 Q 29.783 96.535 34.096 93.682 L 34.096 93.682 L 34.096 93.682 Q 38.408 90.83 40.205 85.664 L 40.205 85.664 L 40.205 63.607 L 40.205 63.607 Q 36.252 50.984 23.719 50.984 L 23.719 50.984 L 23.719 50.984 Q 16.217 50.984 12.062 56.869 L 12.062 56.869 L 12.062 56.869 Q 7.906 62.753 7.906 74.208 Z  M 49.49 74.972 L 49.49 72.816 L 49.49 72.816 Q 49.49 65.853 52.163 60.305 L 52.163 60.305 L 52.163 60.305 Q 54.836 54.757 59.71 51.658 L 59.71 51.658 L 59.71 51.658 Q 64.584 48.558 70.738 48.558 L 70.738 48.558 L 70.738 48.558 Q 76.848 48.558 81.699 51.568 L 81.699 51.568 L 81.699 51.568 Q 86.551 54.578 89.269 60.103 L 89.269 60.103 L 89.269 60.103 Q 91.986 65.628 92.031 72.546 L 92.031 72.546 L 92.031 74.703 L 92.031 74.703 Q 92.031 81.71 89.381 87.236 L 89.381 87.236 L 89.381 87.236 Q 86.73 92.761 81.856 95.861 L 81.856 95.861 L 81.856 95.861 Q 76.982 98.96 70.828 98.96 L 70.828 98.96 L 70.828 98.96 Q 64.674 98.96 59.8 95.906 L 59.8 95.906 L 59.8 95.906 Q 54.926 92.851 52.23 87.348 L 52.23 87.348 L 52.23 87.348 Q 49.535 81.845 49.49 74.972 L 49.49 74.972 L 49.49 74.972 Z  M 51.916 73.265 L 51.916 74.703 L 51.916 74.703 Q 51.916 80.767 54.319 85.821 L 54.319 85.821 L 54.319 85.821 Q 56.723 90.874 61.013 93.705 L 61.013 93.705 L 61.013 93.705 Q 65.303 96.535 70.828 96.535 L 70.828 96.535 L 70.828 96.535 Q 79.139 96.535 84.372 90.291 L 84.372 90.291 L 84.372 90.291 Q 89.605 84.046 89.605 74.208 L 89.605 74.208 L 89.605 72.816 L 89.605 72.816 Q 89.605 66.841 87.18 61.765 L 87.18 61.765 L 87.18 61.765 Q 84.754 56.689 80.464 53.836 L 80.464 53.836 L 80.464 53.836 Q 76.174 50.984 70.738 50.984 L 70.738 50.984 L 70.738 50.984 Q 62.428 50.984 57.172 57.318 L 57.172 57.318 L 57.172 57.318 Q 51.916 63.652 51.916 73.265 L 51.916 73.265 L 51.916 73.265 Z  M 95.117 74.972 L 95.117 72.816 L 95.117 72.816 Q 95.117 65.853 97.79 60.305 L 97.79 60.305 L 97.79 60.305 Q 100.463 54.757 105.337 51.658 L 105.337 51.658 L 105.337 51.658 Q 110.211 48.558 116.365 48.558 L 116.365 48.558 L 116.365 48.558 Q 122.475 48.558 127.326 51.568 L 127.326 51.568 L 127.326 51.568 Q 132.178 54.578 134.896 60.103 L 134.896 60.103 L 134.896 60.103 Q 137.613 65.628 137.658 72.546 L 137.658 72.546 L 137.658 74.703 L 137.658 74.703 Q 137.658 81.71 135.008 87.236 L 135.008 87.236 L 135.008 87.236 Q 132.357 92.761 127.483 95.861 L 127.483 95.861 L 127.483 95.861 Q 122.609 98.96 116.455 98.96 L 116.455 98.96 L 116.455 98.96 Q 110.301 98.96 105.427 95.906 L 105.427 95.906 L 105.427 95.906 Q 100.553 92.851 97.857 87.348 L 97.857 87.348 L 97.857 87.348 Q 95.162 81.845 95.117 74.972 L 95.117 74.972 L 95.117 74.972 Z  M 97.543 73.265 L 97.543 74.703 L 97.543 74.703 Q 97.543 80.767 99.946 85.821 L 99.946 85.821 L 99.946 85.821 Q 102.35 90.874 106.64 93.705 L 106.64 93.705 L 106.64 93.705 Q 110.93 96.535 116.455 96.535 L 116.455 96.535 L 116.455 96.535 Q 124.766 96.535 129.999 90.291 L 129.999 90.291 L 129.999 90.291 Q 135.232 84.046 135.232 74.208 L 135.232 74.208 L 135.232 72.816 L 135.232 72.816 Q 135.232 66.841 132.807 61.765 L 132.807 61.765 L 132.807 61.765 Q 130.381 56.689 126.091 53.836 L 126.091 53.836 L 126.091 53.836 Q 121.801 50.984 116.365 50.984 L 116.365 50.984 L 116.365 50.984 Q 108.055 50.984 102.799 57.318 L 102.799 57.318 L 102.799 57.318 Q 97.543 63.652 97.543 73.265 L 97.543 73.265 L 97.543 73.265 Z  M 142.182 73.894 L 142.182 73.265 L 142.182 73.265 Q 142.182 61.63 147.078 55.094 L 147.078 55.094 L 147.078 55.094 Q 151.975 48.558 160.51 48.558 L 160.51 48.558 L 160.51 48.558 Q 165.99 48.558 170.19 51.029 L 170.19 51.029 L 170.19 51.029 Q 174.391 53.499 176.996 58.396 L 176.996 58.396 L 176.996 29.062 L 179.422 29.062 L 179.422 98.062 L 176.996 98.062 L 176.996 90.291 L 176.996 90.291 Q 174.525 94.423 170.213 96.692 L 170.213 96.692 L 170.213 96.692 Q 165.9 98.96 160.42 98.96 L 160.42 98.96 L 160.42 98.96 Q 151.975 98.96 147.078 92.267 L 147.078 92.267 L 147.078 92.267 Q 142.182 85.574 142.182 73.894 L 142.182 73.894 L 142.182 73.894 Z  M 144.697 74.208 L 144.697 74.208 L 144.697 74.208 Q 144.697 84.541 148.785 90.538 L 148.785 90.538 L 148.785 90.538 Q 152.873 96.535 160.375 96.535 L 160.375 96.535 L 160.375 96.535 Q 166.395 96.535 170.662 93.862 L 170.662 93.862 L 170.662 93.862 Q 174.93 91.189 176.996 86.023 L 176.996 86.023 L 176.996 63.248 L 176.996 63.248 Q 172.818 50.984 160.465 50.984 L 160.465 50.984 L 160.465 50.984 Q 153.008 50.984 148.853 56.869 L 148.853 56.869 L 148.853 56.869 Q 144.697 62.753 144.697 74.208 Z " fill-rule="evenodd" fill="rgb(67,76,74)"/><path d=" M 471.117 64.528 L 471.117 64.528 L 471.117 64.528 Q 471.117 71.796 468.61 77.937 L 468.61 77.937 L 468.61 77.937 Q 466.103 84.078 461.549 88.563 L 461.549 88.563 L 461.549 88.563 Q 456.995 93.048 450.578 95.555 L 450.578 95.555 L 450.578 95.555 Q 444.161 98.062 436.341 98.062 L 436.341 98.062 L 410.305 98.062 L 410.305 31.04 L 436.341 31.04 L 436.341 31.04 Q 444.161 31.04 450.578 33.57 L 450.578 33.57 L 450.578 33.57 Q 456.995 36.1 461.549 40.562 L 461.549 40.562 L 461.549 40.562 Q 466.103 45.024 468.61 51.165 L 468.61 51.165 L 468.61 51.165 Q 471.117 57.306 471.117 64.528 Z  M 455.201 64.528 L 455.201 64.528 L 455.201 64.528 Q 455.201 59.56 453.913 55.558 L 453.913 55.558 L 453.913 55.558 Q 452.625 51.556 450.21 48.773 L 450.21 48.773 L 450.21 48.773 Q 447.795 45.99 444.299 44.495 L 444.299 44.495 L 444.299 44.495 Q 440.803 43 436.341 43 L 436.341 43 L 425.945 43 L 425.945 86.102 L 436.341 86.102 L 436.341 86.102 Q 440.803 86.102 444.299 84.607 L 444.299 84.607 L 444.299 84.607 Q 447.795 83.112 450.21 80.329 L 450.21 80.329 L 450.21 80.329 Q 452.625 77.546 453.913 73.544 L 453.913 73.544 L 453.913 73.544 Q 455.201 69.542 455.201 64.528 Z  M 518.037 98.062 L 511.505 98.062 L 511.505 98.062 Q 509.481 98.062 508.446 97.51 L 508.446 97.51 L 508.446 97.51 Q 507.411 96.958 506.721 95.21 L 506.721 95.21 L 505.709 92.588 L 505.709 92.588 Q 503.915 94.106 502.259 95.256 L 502.259 95.256 L 502.259 95.256 Q 500.603 96.406 498.832 97.211 L 498.832 97.211 L 498.832 97.211 Q 497.061 98.016 495.06 98.407 L 495.06 98.407 L 495.06 98.407 Q 493.059 98.798 490.621 98.798 L 490.621 98.798 L 490.621 98.798 Q 487.355 98.798 484.687 97.944 L 484.687 97.944 L 484.687 97.944 Q 482.019 97.09 480.156 95.429 L 480.156 95.429 L 480.156 95.429 Q 478.293 93.768 477.281 91.299 L 477.281 91.299 L 477.281 91.299 Q 476.269 88.83 476.269 85.599 L 476.269 85.599 L 476.269 85.599 Q 476.269 83.061 477.557 80.384 L 477.557 80.384 L 477.557 80.384 Q 478.845 77.708 482.019 75.516 L 482.019 75.516 L 482.019 75.516 Q 485.193 73.324 490.575 71.847 L 490.575 71.847 L 490.575 71.847 Q 495.957 70.37 504.145 70.37 L 504.145 70.37 L 504.145 68.327 L 504.145 68.327 Q 504.145 64.102 502.42 62.222 L 502.42 62.222 L 502.42 62.222 Q 500.695 60.342 497.521 60.342 L 497.521 60.342 L 497.521 60.342 Q 494.991 60.342 493.381 60.894 L 493.381 60.894 L 493.381 60.894 Q 491.771 61.446 490.506 62.136 L 490.506 62.136 L 490.506 62.136 Q 489.241 62.826 488.045 63.378 L 488.045 63.378 L 488.045 63.378 Q 486.849 63.93 485.193 63.93 L 485.193 63.93 L 485.193 63.93 Q 483.721 63.93 482.686 63.217 L 482.686 63.217 L 482.686 63.217 Q 481.651 62.504 481.053 61.446 L 481.053 61.446 L 478.477 56.984 L 478.477 56.984 Q 482.801 53.166 488.068 51.303 L 488.068 51.303 L 488.068 51.303 Q 493.335 49.44 499.361 49.44 L 499.361 49.44 L 499.361 49.44 Q 503.685 49.44 507.158 50.843 L 507.158 50.843 L 507.158 50.843 Q 510.631 52.246 513.046 54.753 L 513.046 54.753 L 513.046 54.753 Q 515.461 57.26 516.749 60.71 L 516.749 60.71 L 516.749 60.71 Q 518.037 64.16 518.037 68.254 L 518.037 68.254 L 518.037 98.062 L 518.037 98.062 Z  M 495.129 89.368 L 495.129 89.368 L 495.129 89.368 Q 497.889 89.368 499.959 88.402 L 499.959 88.402 L 499.959 88.402 Q 502.029 87.436 504.145 85.274 L 504.145 85.274 L 504.145 78.742 L 504.145 78.742 Q 499.867 78.742 497.107 79.299 L 497.107 79.299 L 497.107 79.299 Q 494.347 79.856 492.737 80.691 L 492.737 80.691 L 492.737 80.691 Q 491.127 81.526 490.506 82.593 L 490.506 82.593 L 490.506 82.593 Q 489.885 83.661 489.885 84.913 L 489.885 84.913 L 489.885 84.913 Q 489.885 87.373 491.219 88.37 L 491.219 88.37 L 491.219 88.37 Q 492.553 89.368 495.129 89.368 Z  M 542.417 98.062 L 528.157 98.062 L 528.157 50.36 L 536.621 50.36 L 536.621 50.36 Q 537.679 50.36 538.392 50.544 L 538.392 50.544 L 538.392 50.544 Q 539.105 50.728 539.588 51.119 L 539.588 51.119 L 539.588 51.119 Q 540.071 51.51 540.324 52.154 L 540.324 52.154 L 540.324 52.154 Q 540.577 52.798 540.761 53.718 L 540.761 53.718 L 541.543 58.18 L 541.543 58.18 Q 544.165 54.132 547.431 51.786 L 547.431 51.786 L 547.431 51.786 Q 550.697 49.44 554.561 49.44 L 554.561 49.44 L 554.561 49.44 Q 557.827 49.44 559.805 51.004 L 559.805 51.004 L 557.965 61.492 L 557.965 61.492 Q 557.781 62.458 557.229 62.849 L 557.229 62.849 L 557.229 62.849 Q 556.677 63.24 555.757 63.24 L 555.757 63.24 L 555.757 63.24 Q 554.975 63.24 553.917 63.033 L 553.917 63.033 L 553.917 63.033 Q 552.859 62.826 551.249 62.826 L 551.249 62.826 L 551.249 62.826 Q 545.637 62.826 542.417 68.806 L 542.417 68.806 L 542.417 98.062 L 542.417 98.062 Z  M 566.153 29.2 L 580.413 29.2 L 580.413 67.794 L 582.529 67.794 L 582.529 67.794 Q 583.863 67.794 584.576 67.426 L 584.576 67.426 L 584.576 67.426 Q 585.289 67.058 585.933 66.092 L 585.933 66.092 L 594.949 52.66 L 594.949 52.66 Q 595.731 51.464 596.812 50.912 L 596.812 50.912 L 596.812 50.912 Q 597.893 50.36 599.549 50.36 L 599.549 50.36 L 612.613 50.36 L 600.285 67.334 L 600.285 67.334 Q 599.411 68.53 598.376 69.45 L 598.376 69.45 L 598.376 69.45 Q 597.341 70.37 596.145 71.106 L 596.145 71.106 L 596.145 71.106 Q 598.215 72.67 599.733 75.246 L 599.733 75.246 L 613.165 98.062 L 600.285 98.062 L 600.285 98.062 Q 598.675 98.062 597.502 97.533 L 597.502 97.533 L 597.502 97.533 Q 596.329 97.004 595.593 95.67 L 595.593 95.67 L 586.577 78.788 L 586.577 78.788 Q 585.933 77.638 585.243 77.293 L 585.243 77.293 L 585.243 77.293 Q 584.553 76.948 583.173 76.948 L 583.173 76.948 L 580.413 76.948 L 580.413 98.062 L 566.153 98.062 L 566.153 29.2 L 566.153 29.2 Z " fill-rule="evenodd" fill="rgb(171,171,171)"/><path d=" M 638.436 32.28 L 638.436 32.28 L 638.436 32.28 Q 638.436 37.416 639.756 42.252 L 639.756 42.252 L 639.756 42.252 Q 641.076 47.088 643.572 51.48 L 643.572 51.48 L 643.572 51.48 Q 643.716 51.744 643.764 51.936 L 643.764 51.936 L 643.764 51.936 Q 643.812 52.128 643.812 52.32 L 643.812 52.32 L 643.812 52.32 Q 643.812 52.656 643.644 52.872 L 643.644 52.872 L 643.644 52.872 Q 643.476 53.088 643.212 53.256 L 643.212 53.256 L 641.316 54.408 L 641.316 54.408 Q 639.516 51.648 638.256 48.936 L 638.256 48.936 L 638.256 48.936 Q 636.996 46.224 636.216 43.488 L 636.216 43.488 L 636.216 43.488 Q 635.436 40.752 635.076 37.98 L 635.076 37.98 L 635.076 37.98 Q 634.716 35.208 634.716 32.28 L 634.716 32.28 L 634.716 32.28 Q 634.716 29.376 635.076 26.592 L 635.076 26.592 L 635.076 26.592 Q 635.436 23.808 636.216 21.084 L 636.216 21.084 L 636.216 21.084 Q 636.996 18.36 638.256 15.648 L 638.256 15.648 L 638.256 15.648 Q 639.516 12.936 641.316 10.152 L 641.316 10.152 L 643.212 11.328 L 643.212 11.328 Q 643.476 11.496 643.644 11.712 L 643.644 11.712 L 643.644 11.712 Q 643.812 11.928 643.812 12.264 L 643.812 12.264 L 643.812 12.264 Q 643.812 12.624 643.572 13.08 L 643.572 13.08 L 643.572 13.08 Q 641.052 17.448 639.744 22.296 L 639.744 22.296 L 639.744 22.296 Q 638.436 27.144 638.436 32.28 Z  M 663.012 12.984 L 663.012 35.496 L 663.012 35.496 Q 663.012 38.376 662.304 40.656 L 662.304 40.656 L 662.304 40.656 Q 661.596 42.936 660.216 44.508 L 660.216 44.508 L 660.216 44.508 Q 658.836 46.08 656.82 46.92 L 656.82 46.92 L 656.82 46.92 Q 654.804 47.76 652.188 47.76 L 652.188 47.76 L 652.188 47.76 Q 649.86 47.76 647.34 47.088 L 647.34 47.088 L 647.34 47.088 Q 647.388 46.392 647.46 45.708 L 647.46 45.708 L 647.46 45.708 Q 647.532 45.024 647.604 44.352 L 647.604 44.352 L 647.604 44.352 Q 647.652 43.944 647.904 43.692 L 647.904 43.692 L 647.904 43.692 Q 648.156 43.44 648.66 43.44 L 648.66 43.44 L 648.66 43.44 Q 649.092 43.44 649.812 43.656 L 649.812 43.656 L 649.812 43.656 Q 650.532 43.872 651.732 43.872 L 651.732 43.872 L 651.732 43.872 Q 653.316 43.872 654.552 43.392 L 654.552 43.392 L 654.552 43.392 Q 655.788 42.912 656.64 41.904 L 656.64 41.904 L 656.64 41.904 Q 657.492 40.896 657.936 39.324 L 657.936 39.324 L 657.936 39.324 Q 658.38 37.752 658.38 35.592 L 658.38 35.592 L 658.38 12.984 L 663.012 12.984 L 663.012 12.984 Z  M 688.572 31.824 L 688.572 47.376 L 686.676 47.376 L 686.676 47.376 Q 686.052 47.376 685.668 47.184 L 685.668 47.184 L 685.668 47.184 Q 685.284 46.992 685.164 46.368 L 685.164 46.368 L 684.684 44.112 L 684.684 44.112 Q 683.724 44.976 682.812 45.66 L 682.812 45.66 L 682.812 45.66 Q 681.9 46.344 680.892 46.812 L 680.892 46.812 L 680.892 46.812 Q 679.884 47.28 678.744 47.52 L 678.744 47.52 L 678.744 47.52 Q 677.604 47.76 676.212 47.76 L 676.212 47.76 L 676.212 47.76 Q 674.796 47.76 673.56 47.363 L 673.56 47.363 L 673.56 47.363 Q 672.324 46.965 671.412 46.171 L 671.412 46.171 L 671.412 46.171 Q 670.5 45.376 669.96 44.16 L 669.96 44.16 L 669.96 44.16 Q 669.42 42.943 669.42 41.282 L 669.42 41.282 L 669.42 41.282 Q 669.42 39.837 670.212 38.5 L 670.212 38.5 L 670.212 38.5 Q 671.004 37.164 672.768 36.128 L 672.768 36.128 L 672.768 36.128 Q 674.532 35.093 677.388 34.43 L 677.388 34.43 L 677.388 34.43 Q 680.244 33.768 684.372 33.768 L 684.372 33.768 L 684.372 31.86 L 684.372 31.86 Q 684.372 29.01 683.16 27.549 L 683.16 27.549 L 683.16 27.549 Q 681.948 26.088 679.572 26.088 L 679.572 26.088 L 679.572 26.088 Q 678.012 26.088 676.944 26.484 L 676.944 26.484 L 676.944 26.484 Q 675.876 26.88 675.096 27.372 L 675.096 27.372 L 675.096 27.372 Q 674.316 27.864 673.752 28.26 L 673.752 28.26 L 673.752 28.26 Q 673.188 28.656 672.636 28.656 L 672.636 28.656 L 672.636 28.656 Q 672.204 28.656 671.88 28.428 L 671.88 28.428 L 671.88 28.428 Q 671.556 28.2 671.364 27.864 L 671.364 27.864 L 670.596 26.496 L 670.596 26.496 Q 672.612 24.552 674.94 23.592 L 674.94 23.592 L 674.94 23.592 Q 677.268 22.632 680.1 22.632 L 680.1 22.632 L 680.1 22.632 Q 682.14 22.632 683.724 23.304 L 683.724 23.304 L 683.724 23.304 Q 685.308 23.976 686.388 25.176 L 686.388 25.176 L 686.388 25.176 Q 687.468 26.376 688.02 28.08 L 688.02 28.08 L 688.02 28.08 Q 688.572 29.784 688.572 31.824 L 688.572 31.824 L 688.572 31.824 Z  M 677.484 44.76 L 677.484 44.76 L 677.484 44.76 Q 678.612 44.76 679.548 44.532 L 679.548 44.532 L 679.548 44.532 Q 680.484 44.304 681.312 43.884 L 681.312 43.884 L 681.312 43.884 Q 682.14 43.464 682.896 42.864 L 682.896 42.864 L 682.896 42.864 Q 683.652 42.264 684.372 41.496 L 684.372 41.496 L 684.372 36.48 L 684.372 36.48 Q 681.42 36.48 679.356 36.854 L 679.356 36.854 L 679.356 36.854 Q 677.292 37.228 675.996 37.832 L 675.996 37.832 L 675.996 37.832 Q 674.7 38.435 674.112 39.256 L 674.112 39.256 L 674.112 39.256 Q 673.524 40.077 673.524 41.091 L 673.524 41.091 L 673.524 41.091 Q 673.524 42.056 673.836 42.756 L 673.836 42.756 L 673.836 42.756 Q 674.148 43.456 674.676 43.903 L 674.676 43.903 L 674.676 43.903 Q 675.204 44.35 675.924 44.555 L 675.924 44.555 L 675.924 44.555 Q 676.644 44.76 677.484 44.76 Z  M 714.708 47.376 L 712.164 47.376 L 712.164 47.376 Q 711.252 47.376 711.012 46.488 L 711.012 46.488 L 710.628 43.536 L 710.628 43.536 Q 709.068 45.432 707.064 46.572 L 707.064 46.572 L 707.064 46.572 Q 705.06 47.712 702.468 47.712 L 702.468 47.712 L 702.468 47.712 Q 700.38 47.712 698.676 46.908 L 698.676 46.908 L 698.676 46.908 Q 696.972 46.104 695.772 44.544 L 695.772 44.544 L 695.772 44.544 Q 694.572 42.984 693.924 40.656 L 693.924 40.656 L 693.924 40.656 Q 693.276 38.328 693.276 35.304 L 693.276 35.304 L 693.276 35.304 Q 693.276 32.616 693.996 30.3 L 693.996 30.3 L 693.996 30.3 Q 694.716 27.984 696.072 26.28 L 696.072 26.28 L 696.072 26.28 Q 697.428 24.576 699.372 23.604 L 699.372 23.604 L 699.372 23.604 Q 701.316 22.632 703.788 22.632 L 703.788 22.632 L 703.788 22.632 Q 706.02 22.632 707.604 23.388 L 707.604 23.388 L 707.604 23.388 Q 709.188 24.144 710.436 25.512 L 710.436 25.512 L 710.436 12.024 L 714.708 12.024 L 714.708 47.376 L 714.708 47.376 Z  M 703.884 44.256 L 703.884 44.256 L 703.884 44.256 Q 705.972 44.256 707.544 43.296 L 707.544 43.296 L 707.544 43.296 Q 709.116 42.336 710.436 40.584 L 710.436 40.584 L 710.436 28.824 L 710.436 28.824 Q 709.26 27.24 707.856 26.604 L 707.856 26.604 L 707.856 26.604 Q 706.452 25.968 704.748 25.968 L 704.748 25.968 L 704.748 25.968 Q 701.34 25.968 699.516 28.392 L 699.516 28.392 L 699.516 28.392 Q 697.692 30.816 697.692 35.304 L 697.692 35.304 L 697.692 35.304 Q 697.692 37.68 698.1 39.372 L 698.1 39.372 L 698.1 39.372 Q 698.508 41.064 699.3 42.156 L 699.3 42.156 L 699.3 42.156 Q 700.092 43.248 701.244 43.752 L 701.244 43.752 L 701.244 43.752 Q 702.396 44.256 703.884 44.256 Z  M 731.508 22.68 L 731.508 22.68 L 731.508 22.68 Q 733.692 22.68 735.54 23.412 L 735.54 23.412 L 735.54 23.412 Q 737.388 24.144 738.732 25.524 L 738.732 25.524 L 738.732 25.524 Q 740.076 26.904 740.832 28.932 L 740.832 28.932 L 740.832 28.932 Q 741.588 30.96 741.588 33.552 L 741.588 33.552 L 741.588 33.552 Q 741.588 34.56 741.372 34.896 L 741.372 34.896 L 741.372 34.896 Q 741.156 35.232 740.556 35.232 L 740.556 35.232 L 724.38 35.232 L 724.38 35.232 Q 724.428 37.536 725.004 39.24 L 725.004 39.24 L 725.004 39.24 Q 725.58 40.944 726.588 42.084 L 726.588 42.084 L 726.588 42.084 Q 727.596 43.224 728.988 43.788 L 728.988 43.788 L 728.988 43.788 Q 730.38 44.352 732.108 44.352 L 732.108 44.352 L 732.108 44.352 Q 733.716 44.352 734.88 43.98 L 734.88 43.98 L 734.88 43.98 Q 736.044 43.608 736.884 43.176 L 736.884 43.176 L 736.884 43.176 Q 737.724 42.744 738.288 42.372 L 738.288 42.372 L 738.288 42.372 Q 738.852 42 739.26 42 L 739.26 42 L 739.26 42 Q 739.788 42 740.076 42.408 L 740.076 42.408 L 741.276 43.968 L 741.276 43.968 Q 740.484 44.928 739.38 45.636 L 739.38 45.636 L 739.38 45.636 Q 738.276 46.344 737.016 46.8 L 737.016 46.8 L 737.016 46.8 Q 735.756 47.256 734.412 47.484 L 734.412 47.484 L 734.412 47.484 Q 733.068 47.712 731.748 47.712 L 731.748 47.712 L 731.748 47.712 Q 729.228 47.712 727.104 46.86 L 727.104 46.86 L 727.104 46.86 Q 724.98 46.008 723.432 44.364 L 723.432 44.364 L 723.432 44.364 Q 721.884 42.72 721.02 40.296 L 721.02 40.296 L 721.02 40.296 Q 720.156 37.872 720.156 34.728 L 720.156 34.728 L 720.156 34.728 Q 720.156 32.184 720.936 29.976 L 720.936 29.976 L 720.936 29.976 Q 721.716 27.768 723.18 26.148 L 723.18 26.148 L 723.18 26.148 Q 724.644 24.528 726.756 23.604 L 726.756 23.604 L 726.756 23.604 Q 728.868 22.68 731.508 22.68 Z  M 731.604 25.824 L 731.604 25.824 L 731.604 25.824 Q 728.508 25.824 726.732 27.612 L 726.732 27.612 L 726.732 27.612 Q 724.956 29.4 724.524 32.568 L 724.524 32.568 L 737.748 32.568 L 737.748 32.568 Q 737.748 31.08 737.34 29.844 L 737.34 29.844 L 737.34 29.844 Q 736.932 28.608 736.14 27.708 L 736.14 27.708 L 736.14 27.708 Q 735.348 26.808 734.208 26.316 L 734.208 26.316 L 734.208 26.316 Q 733.068 25.824 731.604 25.824 Z  M 750.684 32.28 L 750.684 32.28 L 750.684 32.28 Q 750.684 27.144 749.376 22.296 L 749.376 22.296 L 749.376 22.296 Q 748.068 17.448 745.548 13.08 L 745.548 13.08 L 745.548 13.08 Q 745.308 12.624 745.308 12.264 L 745.308 12.264 L 745.308 12.264 Q 745.308 11.928 745.476 11.712 L 745.476 11.712 L 745.476 11.712 Q 745.644 11.496 745.908 11.328 L 745.908 11.328 L 747.804 10.152 L 747.804 10.152 Q 749.604 12.936 750.864 15.648 L 750.864 15.648 L 750.864 15.648 Q 752.124 18.36 752.904 21.084 L 752.904 21.084 L 752.904 21.084 Q 753.684 23.808 754.044 26.592 L 754.044 26.592 L 754.044 26.592 Q 754.404 29.376 754.404 32.28 L 754.404 32.28 L 754.404 32.28 Q 754.404 35.208 754.044 37.98 L 754.044 37.98 L 754.044 37.98 Q 753.684 40.752 752.904 43.488 L 752.904 43.488 L 752.904 43.488 Q 752.124 46.224 750.864 48.936 L 750.864 48.936 L 750.864 48.936 Q 749.604 51.648 747.804 54.408 L 747.804 54.408 L 745.908 53.256 L 745.908 53.256 Q 745.644 53.088 745.476 52.872 L 745.476 52.872 L 745.476 52.872 Q 745.308 52.656 745.308 52.32 L 745.308 52.32 L 745.308 52.32 Q 745.308 52.128 745.356 51.936 L 745.356 51.936 L 745.356 51.936 Q 745.404 51.744 745.548 51.48 L 745.548 51.48 L 745.548 51.48 Q 748.044 47.088 749.364 42.252 L 749.364 42.252 L 749.364 42.252 Q 750.684 37.416 750.684 32.28 Z " fill-rule="evenodd" fill="rgb(51,126,107)"/></g></svg>