<?xml version="1.0" standalone="no"?><!-- Generator: Gravit.io --><svg xmlns="http://www.w3.org/2000/svg" xmlns:xlink="http://www.w3.org/1999/xlink" style="isolation:isolate" viewBox="0 0 1000 282" width="1000" height="282"><g><path d=" M 331.162 157.771 L 331.027 162.668 L 331.027 162.668 Q 329.32 162.353 327.389 162.353 L 327.389 162.353 L 327.389 162.353 Q 322.357 162.353 318.876 165.161 L 318.876 165.161 L 318.876 165.161 Q 315.395 167.968 313.912 173.314 L 313.912 173.314 L 313.912 206.691 L 308.566 206.691 L 308.566 158.086 L 313.822 158.086 L 313.912 165.812 L 313.912 165.812 Q 318.18 157.187 327.613 157.187 L 327.613 157.187 L 327.613 157.187 Q 329.859 157.187 331.162 157.771 L 331.162 157.771 L 331.162 157.771 Z  M 353.34 207.589 L 353.34 207.589 L 353.34 207.589 Q 347.141 207.589 342.132 204.535 L 342.132 204.535 L 342.132 204.535 Q 337.123 201.48 334.338 196.022 L 334.338 196.022 L 334.338 196.022 Q 331.553 190.564 331.553 183.781 L 331.553 183.781 L 331.553 181.849 L 331.553 181.849 Q 331.553 174.841 334.271 169.226 L 334.271 169.226 L 334.271 169.226 Q 336.988 163.611 341.84 160.399 L 341.84 160.399 L 341.84 160.399 Q 346.691 157.187 352.352 157.187 L 352.352 157.187 L 352.352 157.187 Q 361.201 157.187 366.39 163.229 L 366.39 163.229 L 366.39 163.229 Q 371.578 169.271 371.578 179.738 L 371.578 179.738 L 371.578 182.748 L 336.898 182.748 L 336.898 183.781 L 336.898 183.781 Q 336.898 192.046 341.638 197.549 L 341.638 197.549 L 341.638 197.549 Q 346.377 203.052 353.564 203.052 L 353.564 203.052 L 353.564 203.052 Q 357.877 203.052 361.179 201.48 L 361.179 201.48 L 361.179 201.48 Q 364.48 199.908 367.176 196.449 L 367.176 196.449 L 370.545 199.009 L 370.545 199.009 Q 364.615 207.589 353.34 207.589 Z  M 352.352 161.769 L 352.352 161.769 L 352.352 161.769 Q 346.287 161.769 342.132 166.216 L 342.132 166.216 L 342.132 166.216 Q 337.977 170.664 337.078 178.166 L 337.078 178.166 L 366.232 178.166 L 366.232 177.582 L 366.232 177.582 Q 366.008 170.574 362.234 166.171 L 362.234 166.171 L 362.234 166.171 Q 358.461 161.769 352.352 161.769 Z  M 413.477 206.691 L 407.727 206.691 L 407.727 206.691 Q 406.918 204.4 406.693 199.908 L 406.693 199.908 L 406.693 199.908 Q 403.863 203.591 399.483 205.59 L 399.483 205.59 L 399.483 205.59 Q 395.104 207.589 390.207 207.589 L 390.207 207.589 L 390.207 207.589 Q 383.199 207.589 378.864 203.681 L 378.864 203.681 L 378.864 203.681 Q 374.529 199.773 374.529 193.798 L 374.529 193.798 L 374.529 193.798 Q 374.529 186.701 380.437 182.568 L 380.437 182.568 L 380.437 182.568 Q 386.344 178.435 396.9 178.435 L 396.9 178.435 L 406.648 178.435 L 406.648 172.91 L 406.648 172.91 Q 406.648 167.699 403.437 164.712 L 403.437 164.712 L 403.437 164.712 Q 400.225 161.724 394.07 161.724 L 394.07 161.724 L 394.07 161.724 Q 388.455 161.724 384.771 164.599 L 384.771 164.599 L 384.771 164.599 Q 381.088 167.474 381.088 171.517 L 381.088 171.517 L 375.697 171.472 L 375.697 171.472 Q 375.697 165.677 381.088 161.432 L 381.088 161.432 L 381.088 161.432 Q 386.479 157.187 394.34 157.187 L 394.34 157.187 L 394.34 157.187 Q 402.471 157.187 407.165 161.253 L 407.165 161.253 L 407.165 161.253 Q 411.859 165.318 411.994 172.595 L 411.994 172.595 L 411.994 195.595 L 411.994 195.595 Q 411.994 202.648 413.477 206.152 L 413.477 206.152 L 413.477 206.691 L 413.477 206.691 Z  M 390.836 202.828 L 390.836 202.828 L 390.836 202.828 Q 396.227 202.828 400.472 200.222 L 400.472 200.222 L 400.472 200.222 Q 404.717 197.617 406.648 193.259 L 406.648 193.259 L 406.648 182.568 L 397.035 182.568 L 397.035 182.568 Q 388.994 182.658 384.457 185.51 L 384.457 185.51 L 384.457 185.51 Q 379.92 188.363 379.92 193.349 L 379.92 193.349 L 379.92 193.349 Q 379.92 197.437 382.952 200.132 L 382.952 200.132 L 382.952 200.132 Q 385.984 202.828 390.836 202.828 Z  M 419.168 182.568 L 419.168 181.939 L 419.168 181.939 Q 419.168 170.619 424.222 163.903 L 424.222 163.903 L 424.222 163.903 Q 429.275 157.187 437.945 157.187 L 437.945 157.187 L 437.945 157.187 Q 447.783 157.187 452.949 164.959 L 452.949 164.959 L 452.949 137.691 L 458.295 137.691 L 458.295 206.691 L 453.264 206.691 L 453.039 200.222 L 453.039 200.222 Q 447.873 207.589 437.855 207.589 L 437.855 207.589 L 437.855 207.589 Q 429.455 207.589 424.312 200.829 L 424.312 200.829 L 424.312 200.829 Q 419.168 194.068 419.168 182.568 L 419.168 182.568 L 419.168 182.568 Z  M 424.604 182.882 L 424.604 182.882 L 424.604 182.882 Q 424.604 192.181 428.332 197.549 L 428.332 197.549 L 428.332 197.549 Q 432.061 202.918 438.844 202.918 L 438.844 202.918 L 438.844 202.918 Q 448.771 202.918 452.949 194.158 L 452.949 194.158 L 452.949 171.337 L 452.949 171.337 Q 448.771 161.859 438.934 161.859 L 438.934 161.859 L 438.934 161.859 Q 432.15 161.859 428.377 167.182 L 428.377 167.182 L 428.377 167.182 Q 424.604 172.505 424.604 182.882 Z  M 496.555 194.337 L 496.555 194.337 L 496.555 194.337 Q 496.555 190.339 493.343 187.914 L 493.343 187.914 L 493.343 187.914 Q 490.131 185.488 483.662 184.118 L 483.662 184.118 L 483.662 184.118 Q 477.193 182.748 473.622 180.973 L 473.622 180.973 L 473.622 180.973 Q 470.051 179.199 468.321 176.638 L 468.321 176.638 L 468.321 176.638 Q 466.592 174.078 466.592 170.439 L 466.592 170.439 L 466.592 170.439 Q 466.592 164.689 471.398 160.938 L 471.398 160.938 L 471.398 160.938 Q 476.205 157.187 483.707 157.187 L 483.707 157.187 L 483.707 157.187 Q 491.838 157.187 496.757 161.208 L 496.757 161.208 L 496.757 161.208 Q 501.676 165.228 501.676 171.697 L 501.676 171.697 L 496.285 171.697 L 496.285 171.697 Q 496.285 167.429 492.714 164.599 L 492.714 164.599 L 492.714 164.599 Q 489.143 161.769 483.707 161.769 L 483.707 161.769 L 483.707 161.769 Q 478.406 161.769 475.194 164.128 L 475.194 164.128 L 475.194 164.128 Q 471.982 166.486 471.982 170.259 L 471.982 170.259 L 471.982 170.259 Q 471.982 173.898 474.655 175.897 L 474.655 175.897 L 474.655 175.897 Q 477.328 177.896 484.403 179.558 L 484.403 179.558 L 484.403 179.558 Q 491.479 181.22 495.005 183.107 L 495.005 183.107 L 495.005 183.107 Q 498.531 184.994 500.238 187.644 L 500.238 187.644 L 500.238 187.644 Q 501.945 190.295 501.945 194.068 L 501.945 194.068 L 501.945 194.068 Q 501.945 200.222 496.981 203.906 L 496.981 203.906 L 496.981 203.906 Q 492.018 207.589 484.021 207.589 L 484.021 207.589 L 484.021 207.589 Q 475.531 207.589 470.253 203.479 L 470.253 203.479 L 470.253 203.479 Q 464.975 199.369 464.975 193.08 L 464.975 193.08 L 470.365 193.08 L 470.365 193.08 Q 470.68 197.796 474.341 200.424 L 474.341 200.424 L 474.341 200.424 Q 478.002 203.052 484.021 203.052 L 484.021 203.052 L 484.021 203.052 Q 489.637 203.052 493.096 200.582 L 493.096 200.582 L 493.096 200.582 Q 496.555 198.111 496.555 194.337 Z  M 124.936 182.523 L 124.936 181.894 L 124.936 181.894 Q 124.936 170.259 129.832 163.723 L 129.832 163.723 L 129.832 163.723 Q 134.729 157.187 143.264 157.187 L 143.264 157.187 L 143.264 157.187 Q 148.699 157.187 152.922 159.68 L 152.922 159.68 L 152.922 159.68 Q 157.145 162.173 159.705 166.98 L 159.705 166.98 L 159.705 158.086 L 162.176 158.086 L 162.176 205.837 L 162.176 205.837 Q 162.176 215.451 157.234 220.864 L 157.234 220.864 L 157.234 220.864 Q 152.293 226.277 143.803 226.277 L 143.803 226.277 L 143.803 226.277 Q 138.906 226.277 134.841 224.166 L 134.841 224.166 L 134.841 224.166 Q 130.775 222.054 127.9 218.101 L 127.9 218.101 L 129.607 216.484 L 129.607 216.484 Q 132.438 220.078 135.807 221.987 L 135.807 221.987 L 135.807 221.987 Q 139.176 223.896 143.713 223.896 L 143.713 223.896 L 143.713 223.896 Q 151.215 223.896 155.393 219.337 L 155.393 219.337 L 155.393 219.337 Q 159.57 214.777 159.705 206.466 L 159.705 206.466 L 159.705 199.009 L 159.705 199.009 Q 157.189 203.142 152.899 205.366 L 152.899 205.366 L 152.899 205.366 Q 148.609 207.589 143.174 207.589 L 143.174 207.589 L 143.174 207.589 Q 134.729 207.589 129.832 200.896 L 129.832 200.896 L 129.832 200.896 Q 124.936 194.203 124.936 182.523 L 124.936 182.523 L 124.936 182.523 Z  M 127.406 182.837 L 127.406 182.837 L 127.406 182.837 Q 127.406 193.259 131.539 199.212 L 131.539 199.212 L 131.539 199.212 Q 135.672 205.164 143.129 205.164 L 143.129 205.164 L 143.129 205.164 Q 149.283 205.164 153.596 202.311 L 153.596 202.311 L 153.596 202.311 Q 157.908 199.459 159.705 194.293 L 159.705 194.293 L 159.705 172.236 L 159.705 172.236 Q 155.752 159.613 143.219 159.613 L 143.219 159.613 L 143.219 159.613 Q 135.717 159.613 131.562 165.498 L 131.562 165.498 L 131.562 165.498 Q 127.406 171.382 127.406 182.837 Z  M 168.99 183.601 L 168.99 181.445 L 168.99 181.445 Q 168.99 174.482 171.663 168.934 L 171.663 168.934 L 171.663 168.934 Q 174.336 163.386 179.21 160.287 L 179.21 160.287 L 179.21 160.287 Q 184.084 157.187 190.238 157.187 L 190.238 157.187 L 190.238 157.187 Q 196.348 157.187 201.199 160.197 L 201.199 160.197 L 201.199 160.197 Q 206.051 163.207 208.769 168.732 L 208.769 168.732 L 208.769 168.732 Q 211.486 174.257 211.531 181.175 L 211.531 181.175 L 211.531 183.332 L 211.531 183.332 Q 211.531 190.339 208.881 195.865 L 208.881 195.865 L 208.881 195.865 Q 206.23 201.39 201.356 204.49 L 201.356 204.49 L 201.356 204.49 Q 196.482 207.589 190.328 207.589 L 190.328 207.589 L 190.328 207.589 Q 184.174 207.589 179.3 204.535 L 179.3 204.535 L 179.3 204.535 Q 174.426 201.48 171.73 195.977 L 171.73 195.977 L 171.73 195.977 Q 169.035 190.474 168.99 183.601 L 168.99 183.601 L 168.99 183.601 Z  M 171.416 181.894 L 171.416 183.332 L 171.416 183.332 Q 171.416 189.396 173.819 194.45 L 173.819 194.45 L 173.819 194.45 Q 176.223 199.503 180.513 202.334 L 180.513 202.334 L 180.513 202.334 Q 184.803 205.164 190.328 205.164 L 190.328 205.164 L 190.328 205.164 Q 198.639 205.164 203.872 198.92 L 203.872 198.92 L 203.872 198.92 Q 209.105 192.675 209.105 182.837 L 209.105 182.837 L 209.105 181.445 L 209.105 181.445 Q 209.105 175.47 206.68 170.394 L 206.68 170.394 L 206.68 170.394 Q 204.254 165.318 199.964 162.465 L 199.964 162.465 L 199.964 162.465 Q 195.674 159.613 190.238 159.613 L 190.238 159.613 L 190.238 159.613 Q 181.928 159.613 176.672 165.947 L 176.672 165.947 L 176.672 165.947 Q 171.416 172.281 171.416 181.894 L 171.416 181.894 L 171.416 181.894 Z  M 214.617 183.601 L 214.617 181.445 L 214.617 181.445 Q 214.617 174.482 217.29 168.934 L 217.29 168.934 L 217.29 168.934 Q 219.963 163.386 224.837 160.287 L 224.837 160.287 L 224.837 160.287 Q 229.711 157.187 235.865 157.187 L 235.865 157.187 L 235.865 157.187 Q 241.975 157.187 246.826 160.197 L 246.826 160.197 L 246.826 160.197 Q 251.678 163.207 254.396 168.732 L 254.396 168.732 L 254.396 168.732 Q 257.113 174.257 257.158 181.175 L 257.158 181.175 L 257.158 183.332 L 257.158 183.332 Q 257.158 190.339 254.508 195.865 L 254.508 195.865 L 254.508 195.865 Q 251.857 201.39 246.983 204.49 L 246.983 204.49 L 246.983 204.49 Q 242.109 207.589 235.955 207.589 L 235.955 207.589 L 235.955 207.589 Q 229.801 207.589 224.927 204.535 L 224.927 204.535 L 224.927 204.535 Q 220.053 201.48 217.357 195.977 L 217.357 195.977 L 217.357 195.977 Q 214.662 190.474 214.617 183.601 L 214.617 183.601 L 214.617 183.601 Z  M 217.043 181.894 L 217.043 183.332 L 217.043 183.332 Q 217.043 189.396 219.446 194.45 L 219.446 194.45 L 219.446 194.45 Q 221.85 199.503 226.14 202.334 L 226.14 202.334 L 226.14 202.334 Q 230.43 205.164 235.955 205.164 L 235.955 205.164 L 235.955 205.164 Q 244.266 205.164 249.499 198.92 L 249.499 198.92 L 249.499 198.92 Q 254.732 192.675 254.732 182.837 L 254.732 182.837 L 254.732 181.445 L 254.732 181.445 Q 254.732 175.47 252.307 170.394 L 252.307 170.394 L 252.307 170.394 Q 249.881 165.318 245.591 162.465 L 245.591 162.465 L 245.591 162.465 Q 241.301 159.613 235.865 159.613 L 235.865 159.613 L 235.865 159.613 Q 227.555 159.613 222.299 165.947 L 222.299 165.947 L 222.299 165.947 Q 217.043 172.281 217.043 181.894 L 217.043 181.894 L 217.043 181.894 Z  M 261.682 182.523 L 261.682 181.894 L 261.682 181.894 Q 261.682 170.259 266.578 163.723 L 266.578 163.723 L 266.578 163.723 Q 271.475 157.187 280.01 157.187 L 280.01 157.187 L 280.01 157.187 Q 285.49 157.187 289.69 159.658 L 289.69 159.658 L 289.69 159.658 Q 293.891 162.128 296.496 167.025 L 296.496 167.025 L 296.496 137.691 L 298.922 137.691 L 298.922 206.691 L 296.496 206.691 L 296.496 198.92 L 296.496 198.92 Q 294.025 203.052 289.713 205.321 L 289.713 205.321 L 289.713 205.321 Q 285.4 207.589 279.92 207.589 L 279.92 207.589 L 279.92 207.589 Q 271.475 207.589 266.578 200.896 L 266.578 200.896 L 266.578 200.896 Q 261.682 194.203 261.682 182.523 L 261.682 182.523 L 261.682 182.523 Z  M 264.197 182.837 L 264.197 182.837 L 264.197 182.837 Q 264.197 193.17 268.285 199.167 L 268.285 199.167 L 268.285 199.167 Q 272.373 205.164 279.875 205.164 L 279.875 205.164 L 279.875 205.164 Q 285.895 205.164 290.162 202.491 L 290.162 202.491 L 290.162 202.491 Q 294.43 199.818 296.496 194.652 L 296.496 194.652 L 296.496 171.877 L 296.496 171.877 Q 292.318 159.613 279.965 159.613 L 279.965 159.613 L 279.965 159.613 Q 272.508 159.613 268.353 165.498 L 268.353 165.498 L 268.353 165.498 Q 264.197 171.382 264.197 182.837 Z " fill-rule="evenodd" fill="rgb(67,76,74)"/><path d=" M 590.617 173.157 L 590.617 173.157 L 590.617 173.157 Q 590.617 180.425 588.11 186.566 L 588.11 186.566 L 588.11 186.566 Q 585.603 192.707 581.049 197.192 L 581.049 197.192 L 581.049 197.192 Q 576.495 201.677 570.078 204.184 L 570.078 204.184 L 570.078 204.184 Q 563.661 206.691 555.841 206.691 L 555.841 206.691 L 529.805 206.691 L 529.805 139.669 L 555.841 139.669 L 555.841 139.669 Q 563.661 139.669 570.078 142.199 L 570.078 142.199 L 570.078 142.199 Q 576.495 144.729 581.049 149.191 L 581.049 149.191 L 581.049 149.191 Q 585.603 153.653 588.11 159.794 L 588.11 159.794 L 588.11 159.794 Q 590.617 165.935 590.617 173.157 Z  M 574.701 173.157 L 574.701 173.157 L 574.701 173.157 Q 574.701 168.189 573.413 164.187 L 573.413 164.187 L 573.413 164.187 Q 572.125 160.185 569.71 157.402 L 569.71 157.402 L 569.71 157.402 Q 567.295 154.619 563.799 153.124 L 563.799 153.124 L 563.799 153.124 Q 560.303 151.629 555.841 151.629 L 555.841 151.629 L 545.445 151.629 L 545.445 194.731 L 555.841 194.731 L 555.841 194.731 Q 560.303 194.731 563.799 193.236 L 563.799 193.236 L 563.799 193.236 Q 567.295 191.741 569.71 188.958 L 569.71 188.958 L 569.71 188.958 Q 572.125 186.175 573.413 182.173 L 573.413 182.173 L 573.413 182.173 Q 574.701 178.171 574.701 173.157 Z  M 637.537 206.691 L 631.005 206.691 L 631.005 206.691 Q 628.981 206.691 627.946 206.139 L 627.946 206.139 L 627.946 206.139 Q 626.911 205.587 626.221 203.839 L 626.221 203.839 L 625.209 201.217 L 625.209 201.217 Q 623.415 202.735 621.759 203.885 L 621.759 203.885 L 621.759 203.885 Q 620.103 205.035 618.332 205.84 L 618.332 205.84 L 618.332 205.84 Q 616.561 206.645 614.56 207.036 L 614.56 207.036 L 614.56 207.036 Q 612.559 207.427 610.121 207.427 L 610.121 207.427 L 610.121 207.427 Q 606.855 207.427 604.187 206.573 L 604.187 206.573 L 604.187 206.573 Q 601.519 205.719 599.656 204.058 L 599.656 204.058 L 599.656 204.058 Q 597.793 202.397 596.781 199.928 L 596.781 199.928 L 596.781 199.928 Q 595.769 197.459 595.769 194.228 L 595.769 194.228 L 595.769 194.228 Q 595.769 191.69 597.057 189.013 L 597.057 189.013 L 597.057 189.013 Q 598.345 186.337 601.519 184.145 L 601.519 184.145 L 601.519 184.145 Q 604.693 181.953 610.075 180.476 L 610.075 180.476 L 610.075 180.476 Q 615.457 178.999 623.645 178.999 L 623.645 178.999 L 623.645 176.956 L 623.645 176.956 Q 623.645 172.731 621.92 170.851 L 621.92 170.851 L 621.92 170.851 Q 620.195 168.971 617.021 168.971 L 617.021 168.971 L 617.021 168.971 Q 614.491 168.971 612.881 169.523 L 612.881 169.523 L 612.881 169.523 Q 611.271 170.075 610.006 170.765 L 610.006 170.765 L 610.006 170.765 Q 608.741 171.455 607.545 172.007 L 607.545 172.007 L 607.545 172.007 Q 606.349 172.559 604.693 172.559 L 604.693 172.559 L 604.693 172.559 Q 603.221 172.559 602.186 171.846 L 602.186 171.846 L 602.186 171.846 Q 601.151 171.133 600.553 170.075 L 600.553 170.075 L 597.977 165.613 L 597.977 165.613 Q 602.301 161.795 607.568 159.932 L 607.568 159.932 L 607.568 159.932 Q 612.835 158.069 618.861 158.069 L 618.861 158.069 L 618.861 158.069 Q 623.185 158.069 626.658 159.472 L 626.658 159.472 L 626.658 159.472 Q 630.131 160.875 632.546 163.382 L 632.546 163.382 L 632.546 163.382 Q 634.961 165.889 636.249 169.339 L 636.249 169.339 L 636.249 169.339 Q 637.537 172.789 637.537 176.883 L 637.537 176.883 L 637.537 206.691 L 637.537 206.691 Z  M 614.629 197.997 L 614.629 197.997 L 614.629 197.997 Q 617.389 197.997 619.459 197.031 L 619.459 197.031 L 619.459 197.031 Q 621.529 196.065 623.645 193.903 L 623.645 193.903 L 623.645 187.371 L 623.645 187.371 Q 619.367 187.371 616.607 187.928 L 616.607 187.928 L 616.607 187.928 Q 613.847 188.485 612.237 189.32 L 612.237 189.32 L 612.237 189.32 Q 610.627 190.155 610.006 191.222 L 610.006 191.222 L 610.006 191.222 Q 609.385 192.29 609.385 193.542 L 609.385 193.542 L 609.385 193.542 Q 609.385 196.002 610.719 196.999 L 610.719 196.999 L 610.719 196.999 Q 612.053 197.997 614.629 197.997 Z  M 661.917 206.691 L 647.657 206.691 L 647.657 158.989 L 656.121 158.989 L 656.121 158.989 Q 657.179 158.989 657.892 159.173 L 657.892 159.173 L 657.892 159.173 Q 658.605 159.357 659.088 159.748 L 659.088 159.748 L 659.088 159.748 Q 659.571 160.139 659.824 160.783 L 659.824 160.783 L 659.824 160.783 Q 660.077 161.427 660.261 162.347 L 660.261 162.347 L 661.043 166.809 L 661.043 166.809 Q 663.665 162.761 666.931 160.415 L 666.931 160.415 L 666.931 160.415 Q 670.197 158.069 674.061 158.069 L 674.061 158.069 L 674.061 158.069 Q 677.327 158.069 679.305 159.633 L 679.305 159.633 L 677.465 170.121 L 677.465 170.121 Q 677.281 171.087 676.729 171.478 L 676.729 171.478 L 676.729 171.478 Q 676.177 171.869 675.257 171.869 L 675.257 171.869 L 675.257 171.869 Q 674.475 171.869 673.417 171.662 L 673.417 171.662 L 673.417 171.662 Q 672.359 171.455 670.749 171.455 L 670.749 171.455 L 670.749 171.455 Q 665.137 171.455 661.917 177.435 L 661.917 177.435 L 661.917 206.691 L 661.917 206.691 Z  M 685.653 137.829 L 699.913 137.829 L 699.913 176.423 L 702.029 176.423 L 702.029 176.423 Q 703.363 176.423 704.076 176.055 L 704.076 176.055 L 704.076 176.055 Q 704.789 175.687 705.433 174.721 L 705.433 174.721 L 714.449 161.289 L 714.449 161.289 Q 715.231 160.093 716.312 159.541 L 716.312 159.541 L 716.312 159.541 Q 717.393 158.989 719.049 158.989 L 719.049 158.989 L 732.113 158.989 L 719.785 175.963 L 719.785 175.963 Q 718.911 177.159 717.876 178.079 L 717.876 178.079 L 717.876 178.079 Q 716.841 178.999 715.645 179.735 L 715.645 179.735 L 715.645 179.735 Q 717.715 181.299 719.233 183.875 L 719.233 183.875 L 732.665 206.691 L 719.785 206.691 L 719.785 206.691 Q 718.175 206.691 717.002 206.162 L 717.002 206.162 L 717.002 206.162 Q 715.829 205.633 715.093 204.299 L 715.093 204.299 L 706.077 187.417 L 706.077 187.417 Q 705.433 186.267 704.743 185.922 L 704.743 185.922 L 704.743 185.922 Q 704.053 185.577 702.673 185.577 L 702.673 185.577 L 699.913 185.577 L 699.913 206.691 L 685.653 206.691 L 685.653 137.829 L 685.653 137.829 Z " fill-rule="evenodd" fill="rgb(171,171,171)"/><path d=" M 757.936 140.909 L 757.936 140.909 L 757.936 140.909 Q 757.936 146.045 759.256 150.881 L 759.256 150.881 L 759.256 150.881 Q 760.576 155.717 763.072 160.109 L 763.072 160.109 L 763.072 160.109 Q 763.216 160.373 763.264 160.565 L 763.264 160.565 L 763.264 160.565 Q 763.312 160.757 763.312 160.949 L 763.312 160.949 L 763.312 160.949 Q 763.312 161.285 763.144 161.501 L 763.144 161.501 L 763.144 161.501 Q 762.976 161.717 762.712 161.885 L 762.712 161.885 L 760.816 163.037 L 760.816 163.037 Q 759.016 160.277 757.756 157.565 L 757.756 157.565 L 757.756 157.565 Q 756.496 154.853 755.716 152.117 L 755.716 152.117 L 755.716 152.117 Q 754.936 149.381 754.576 146.609 L 754.576 146.609 L 754.576 146.609 Q 754.216 143.837 754.216 140.909 L 754.216 140.909 L 754.216 140.909 Q 754.216 138.005 754.576 135.221 L 754.576 135.221 L 754.576 135.221 Q 754.936 132.437 755.716 129.713 L 755.716 129.713 L 755.716 129.713 Q 756.496 126.989 757.756 124.277 L 757.756 124.277 L 757.756 124.277 Q 759.016 121.565 760.816 118.781 L 760.816 118.781 L 762.712 119.957 L 762.712 119.957 Q 762.976 120.125 763.144 120.341 L 763.144 120.341 L 763.144 120.341 Q 763.312 120.557 763.312 120.893 L 763.312 120.893 L 763.312 120.893 Q 763.312 121.253 763.072 121.709 L 763.072 121.709 L 763.072 121.709 Q 760.552 126.077 759.244 130.925 L 759.244 130.925 L 759.244 130.925 Q 757.936 135.773 757.936 140.909 Z  M 782.512 121.613 L 782.512 144.125 L 782.512 144.125 Q 782.512 147.005 781.804 149.285 L 781.804 149.285 L 781.804 149.285 Q 781.096 151.565 779.716 153.137 L 779.716 153.137 L 779.716 153.137 Q 778.336 154.709 776.32 155.549 L 776.32 155.549 L 776.32 155.549 Q 774.304 156.389 771.688 156.389 L 771.688 156.389 L 771.688 156.389 Q 769.36 156.389 766.84 155.717 L 766.84 155.717 L 766.84 155.717 Q 766.888 155.021 766.96 154.337 L 766.96 154.337 L 766.96 154.337 Q 767.032 153.653 767.104 152.981 L 767.104 152.981 L 767.104 152.981 Q 767.152 152.573 767.404 152.321 L 767.404 152.321 L 767.404 152.321 Q 767.656 152.069 768.16 152.069 L 768.16 152.069 L 768.16 152.069 Q 768.592 152.069 769.312 152.285 L 769.312 152.285 L 769.312 152.285 Q 770.032 152.501 771.232 152.501 L 771.232 152.501 L 771.232 152.501 Q 772.816 152.501 774.052 152.021 L 774.052 152.021 L 774.052 152.021 Q 775.288 151.541 776.14 150.533 L 776.14 150.533 L 776.14 150.533 Q 776.992 149.525 777.436 147.953 L 777.436 147.953 L 777.436 147.953 Q 777.88 146.381 777.88 144.221 L 777.88 144.221 L 777.88 121.613 L 782.512 121.613 L 782.512 121.613 Z  M 808.072 140.453 L 808.072 156.005 L 806.176 156.005 L 806.176 156.005 Q 805.552 156.005 805.168 155.813 L 805.168 155.813 L 805.168 155.813 Q 804.784 155.621 804.664 154.997 L 804.664 154.997 L 804.184 152.741 L 804.184 152.741 Q 803.224 153.605 802.312 154.289 L 802.312 154.289 L 802.312 154.289 Q 801.4 154.973 800.392 155.441 L 800.392 155.441 L 800.392 155.441 Q 799.384 155.909 798.244 156.149 L 798.244 156.149 L 798.244 156.149 Q 797.104 156.389 795.712 156.389 L 795.712 156.389 L 795.712 156.389 Q 794.296 156.389 793.06 155.992 L 793.06 155.992 L 793.06 155.992 Q 791.824 155.594 790.912 154.8 L 790.912 154.8 L 790.912 154.8 Q 790 154.005 789.46 152.789 L 789.46 152.789 L 789.46 152.789 Q 788.92 151.572 788.92 149.911 L 788.92 149.911 L 788.92 149.911 Q 788.92 148.466 789.712 147.129 L 789.712 147.129 L 789.712 147.129 Q 790.504 145.793 792.268 144.757 L 792.268 144.757 L 792.268 144.757 Q 794.032 143.722 796.888 143.059 L 796.888 143.059 L 796.888 143.059 Q 799.744 142.397 803.872 142.397 L 803.872 142.397 L 803.872 140.489 L 803.872 140.489 Q 803.872 137.639 802.66 136.178 L 802.66 136.178 L 802.66 136.178 Q 801.448 134.717 799.072 134.717 L 799.072 134.717 L 799.072 134.717 Q 797.512 134.717 796.444 135.113 L 796.444 135.113 L 796.444 135.113 Q 795.376 135.509 794.596 136.001 L 794.596 136.001 L 794.596 136.001 Q 793.816 136.493 793.252 136.889 L 793.252 136.889 L 793.252 136.889 Q 792.688 137.285 792.136 137.285 L 792.136 137.285 L 792.136 137.285 Q 791.704 137.285 791.38 137.057 L 791.38 137.057 L 791.38 137.057 Q 791.056 136.829 790.864 136.493 L 790.864 136.493 L 790.096 135.125 L 790.096 135.125 Q 792.112 133.181 794.44 132.221 L 794.44 132.221 L 794.44 132.221 Q 796.768 131.261 799.6 131.261 L 799.6 131.261 L 799.6 131.261 Q 801.64 131.261 803.224 131.933 L 803.224 131.933 L 803.224 131.933 Q 804.808 132.605 805.888 133.805 L 805.888 133.805 L 805.888 133.805 Q 806.968 135.005 807.52 136.709 L 807.52 136.709 L 807.52 136.709 Q 808.072 138.413 808.072 140.453 L 808.072 140.453 L 808.072 140.453 Z  M 796.984 153.389 L 796.984 153.389 L 796.984 153.389 Q 798.112 153.389 799.048 153.161 L 799.048 153.161 L 799.048 153.161 Q 799.984 152.933 800.812 152.513 L 800.812 152.513 L 800.812 152.513 Q 801.64 152.093 802.396 151.493 L 802.396 151.493 L 802.396 151.493 Q 803.152 150.893 803.872 150.125 L 803.872 150.125 L 803.872 145.109 L 803.872 145.109 Q 800.92 145.109 798.856 145.483 L 798.856 145.483 L 798.856 145.483 Q 796.792 145.857 795.496 146.461 L 795.496 146.461 L 795.496 146.461 Q 794.2 147.064 793.612 147.885 L 793.612 147.885 L 793.612 147.885 Q 793.024 148.706 793.024 149.72 L 793.024 149.72 L 793.024 149.72 Q 793.024 150.685 793.336 151.385 L 793.336 151.385 L 793.336 151.385 Q 793.648 152.085 794.176 152.532 L 794.176 152.532 L 794.176 152.532 Q 794.704 152.979 795.424 153.184 L 795.424 153.184 L 795.424 153.184 Q 796.144 153.389 796.984 153.389 Z  M 834.208 156.005 L 831.664 156.005 L 831.664 156.005 Q 830.752 156.005 830.512 155.117 L 830.512 155.117 L 830.128 152.165 L 830.128 152.165 Q 828.568 154.061 826.564 155.201 L 826.564 155.201 L 826.564 155.201 Q 824.56 156.341 821.968 156.341 L 821.968 156.341 L 821.968 156.341 Q 819.88 156.341 818.176 155.537 L 818.176 155.537 L 818.176 155.537 Q 816.472 154.733 815.272 153.173 L 815.272 153.173 L 815.272 153.173 Q 814.072 151.613 813.424 149.285 L 813.424 149.285 L 813.424 149.285 Q 812.776 146.957 812.776 143.933 L 812.776 143.933 L 812.776 143.933 Q 812.776 141.245 813.496 138.929 L 813.496 138.929 L 813.496 138.929 Q 814.216 136.613 815.572 134.909 L 815.572 134.909 L 815.572 134.909 Q 816.928 133.205 818.872 132.233 L 818.872 132.233 L 818.872 132.233 Q 820.816 131.261 823.288 131.261 L 823.288 131.261 L 823.288 131.261 Q 825.52 131.261 827.104 132.017 L 827.104 132.017 L 827.104 132.017 Q 828.688 132.773 829.936 134.141 L 829.936 134.141 L 829.936 120.653 L 834.208 120.653 L 834.208 156.005 L 834.208 156.005 Z  M 823.384 152.885 L 823.384 152.885 L 823.384 152.885 Q 825.472 152.885 827.044 151.925 L 827.044 151.925 L 827.044 151.925 Q 828.616 150.965 829.936 149.213 L 829.936 149.213 L 829.936 137.453 L 829.936 137.453 Q 828.76 135.869 827.356 135.233 L 827.356 135.233 L 827.356 135.233 Q 825.952 134.597 824.248 134.597 L 824.248 134.597 L 824.248 134.597 Q 820.84 134.597 819.016 137.021 L 819.016 137.021 L 819.016 137.021 Q 817.192 139.445 817.192 143.933 L 817.192 143.933 L 817.192 143.933 Q 817.192 146.309 817.6 148.001 L 817.6 148.001 L 817.6 148.001 Q 818.008 149.693 818.8 150.785 L 818.8 150.785 L 818.8 150.785 Q 819.592 151.877 820.744 152.381 L 820.744 152.381 L 820.744 152.381 Q 821.896 152.885 823.384 152.885 Z  M 851.008 131.309 L 851.008 131.309 L 851.008 131.309 Q 853.192 131.309 855.04 132.041 L 855.04 132.041 L 855.04 132.041 Q 856.888 132.773 858.232 134.153 L 858.232 134.153 L 858.232 134.153 Q 859.576 135.533 860.332 137.561 L 860.332 137.561 L 860.332 137.561 Q 861.088 139.589 861.088 142.181 L 861.088 142.181 L 861.088 142.181 Q 861.088 143.189 860.872 143.525 L 860.872 143.525 L 860.872 143.525 Q 860.656 143.861 860.056 143.861 L 860.056 143.861 L 843.88 143.861 L 843.88 143.861 Q 843.928 146.165 844.504 147.869 L 844.504 147.869 L 844.504 147.869 Q 845.08 149.573 846.088 150.713 L 846.088 150.713 L 846.088 150.713 Q 847.096 151.853 848.488 152.417 L 848.488 152.417 L 848.488 152.417 Q 849.88 152.981 851.608 152.981 L 851.608 152.981 L 851.608 152.981 Q 853.216 152.981 854.38 152.609 L 854.38 152.609 L 854.38 152.609 Q 855.544 152.237 856.384 151.805 L 856.384 151.805 L 856.384 151.805 Q 857.224 151.373 857.788 151.001 L 857.788 151.001 L 857.788 151.001 Q 858.352 150.629 858.76 150.629 L 858.76 150.629 L 858.76 150.629 Q 859.288 150.629 859.576 151.037 L 859.576 151.037 L 860.776 152.597 L 860.776 152.597 Q 859.984 153.557 858.88 154.265 L 858.88 154.265 L 858.88 154.265 Q 857.776 154.973 856.516 155.429 L 856.516 155.429 L 856.516 155.429 Q 855.256 155.885 853.912 156.113 L 853.912 156.113 L 853.912 156.113 Q 852.568 156.341 851.248 156.341 L 851.248 156.341 L 851.248 156.341 Q 848.728 156.341 846.604 155.489 L 846.604 155.489 L 846.604 155.489 Q 844.48 154.637 842.932 152.993 L 842.932 152.993 L 842.932 152.993 Q 841.384 151.349 840.52 148.925 L 840.52 148.925 L 840.52 148.925 Q 839.656 146.501 839.656 143.357 L 839.656 143.357 L 839.656 143.357 Q 839.656 140.813 840.436 138.605 L 840.436 138.605 L 840.436 138.605 Q 841.216 136.397 842.68 134.777 L 842.68 134.777 L 842.68 134.777 Q 844.144 133.157 846.256 132.233 L 846.256 132.233 L 846.256 132.233 Q 848.368 131.309 851.008 131.309 Z  M 851.104 134.453 L 851.104 134.453 L 851.104 134.453 Q 848.008 134.453 846.232 136.241 L 846.232 136.241 L 846.232 136.241 Q 844.456 138.029 844.024 141.197 L 844.024 141.197 L 857.248 141.197 L 857.248 141.197 Q 857.248 139.709 856.84 138.473 L 856.84 138.473 L 856.84 138.473 Q 856.432 137.237 855.64 136.337 L 855.64 136.337 L 855.64 136.337 Q 854.848 135.437 853.708 134.945 L 853.708 134.945 L 853.708 134.945 Q 852.568 134.453 851.104 134.453 Z  M 870.184 140.909 L 870.184 140.909 L 870.184 140.909 Q 870.184 135.773 868.876 130.925 L 868.876 130.925 L 868.876 130.925 Q 867.568 126.077 865.048 121.709 L 865.048 121.709 L 865.048 121.709 Q 864.808 121.253 864.808 120.893 L 864.808 120.893 L 864.808 120.893 Q 864.808 120.557 864.976 120.341 L 864.976 120.341 L 864.976 120.341 Q 865.144 120.125 865.408 119.957 L 865.408 119.957 L 867.304 118.781 L 867.304 118.781 Q 869.104 121.565 870.364 124.277 L 870.364 124.277 L 870.364 124.277 Q 871.624 126.989 872.404 129.713 L 872.404 129.713 L 872.404 129.713 Q 873.184 132.437 873.544 135.221 L 873.544 135.221 L 873.544 135.221 Q 873.904 138.005 873.904 140.909 L 873.904 140.909 L 873.904 140.909 Q 873.904 143.837 873.544 146.609 L 873.544 146.609 L 873.544 146.609 Q 873.184 149.381 872.404 152.117 L 872.404 152.117 L 872.404 152.117 Q 871.624 154.853 870.364 157.565 L 870.364 157.565 L 870.364 157.565 Q 869.104 160.277 867.304 163.037 L 867.304 163.037 L 865.408 161.885 L 865.408 161.885 Q 865.144 161.717 864.976 161.501 L 864.976 161.501 L 864.976 161.501 Q 864.808 161.285 864.808 160.949 L 864.808 160.949 L 864.808 160.949 Q 864.808 160.757 864.856 160.565 L 864.856 160.565 L 864.856 160.565 Q 864.904 160.373 865.048 160.109 L 865.048 160.109 L 865.048 160.109 Q 867.544 155.717 868.864 150.881 L 868.864 150.881 L 868.864 150.881 Q 870.184 146.045 870.184 140.909 Z " fill-rule="evenodd" fill="rgb(51,126,107)"/></g><g><path d=" M 63.9 177.4 L 63.9 177.4 L 63.9 177.4 Q 63.9 171.3 61.05 167.45 L 61.05 167.45 L 61.05 167.45 Q 58.2 163.6 51.9 163.6 L 51.9 163.6 L 51.9 149.3 L 51.9 149.3 Q 58.2 149.3 61.05 145.45 L 61.05 145.45 L 61.05 145.45 Q 63.9 141.6 63.9 135.5 L 63.9 135.5 L 63.9 135.5 Q 63.9 130.8 63.25 126.15 L 63.25 126.15 L 63.25 126.15 Q 62.6 121.5 61.75 116.8 L 61.75 116.8 L 61.75 116.8 Q 60.9 112.1 60.25 107.35 L 60.25 107.35 L 60.25 107.35 Q 59.6 102.6 59.6 97.7 L 59.6 97.7 L 59.6 97.7 Q 59.6 90.1 61.8 83.85 L 61.8 83.85 L 61.8 83.85 Q 64 77.6 68.55 73.1 L 68.55 73.1 L 68.55 73.1 Q 73.1 68.6 80.05 66.15 L 80.05 66.15 L 80.05 66.15 Q 87 63.7 96.4 63.7 L 96.4 63.7 L 101.7 63.7 L 101.7 74.7 L 101.7 74.7 Q 101.7 76 101.15 76.95 L 101.15 76.95 L 101.15 76.95 Q 100.6 77.9 99.75 78.5 L 99.75 78.5 L 99.75 78.5 Q 98.9 79.1 98 79.4 L 98 79.4 L 98 79.4 Q 97.1 79.7 96.4 79.7 L 96.4 79.7 L 95.5 79.7 L 95.5 79.7 Q 88.5 79.7 84.8 84.1 L 84.8 84.1 L 84.8 84.1 Q 81.1 88.5 81.1 96.2 L 81.1 96.2 L 81.1 96.2 Q 81.1 101.7 81.7 106.75 L 81.7 106.75 L 81.7 106.75 Q 82.3 111.8 82.95 116.55 L 82.95 116.55 L 82.95 116.55 Q 83.6 121.3 84.2 125.9 L 84.2 125.9 L 84.2 125.9 Q 84.8 130.5 84.8 135.2 L 84.8 135.2 L 84.8 135.2 Q 84.8 139 83.75 142.4 L 83.75 142.4 L 83.75 142.4 Q 82.7 145.8 80.65 148.55 L 80.65 148.55 L 80.65 148.55 Q 78.6 151.3 75.75 153.4 L 75.75 153.4 L 75.75 153.4 Q 72.9 155.5 69.3 156.5 L 69.3 156.5 L 69.3 156.5 Q 72.9 157.6 75.75 159.65 L 75.75 159.65 L 75.75 159.65 Q 78.6 161.7 80.65 164.5 L 80.65 164.5 L 80.65 164.5 Q 82.7 167.3 83.75 170.7 L 83.75 170.7 L 83.75 170.7 Q 84.8 174.1 84.8 177.8 L 84.8 177.8 L 84.8 177.8 Q 84.8 182.5 84.2 187.1 L 84.2 187.1 L 84.2 187.1 Q 83.6 191.7 82.95 196.45 L 82.95 196.45 L 82.95 196.45 Q 82.3 201.2 81.7 206.25 L 81.7 206.25 L 81.7 206.25 Q 81.1 211.3 81.1 216.8 L 81.1 216.8 L 81.1 216.8 Q 81.1 224.4 84.8 228.8 L 84.8 228.8 L 84.8 228.8 Q 88.5 233.2 95.5 233.2 L 95.5 233.2 L 96.4 233.2 L 96.4 233.2 Q 97.1 233.2 98 233.5 L 98 233.5 L 98 233.5 Q 98.9 233.8 99.75 234.4 L 99.75 234.4 L 99.75 234.4 Q 100.6 235 101.15 236 L 101.15 236 L 101.15 236 Q 101.7 237 101.7 238.3 L 101.7 238.3 L 101.7 249.2 L 96.4 249.2 L 96.4 249.2 Q 87 249.2 80.05 246.75 L 80.05 246.75 L 80.05 246.75 Q 73.1 244.3 68.55 239.85 L 68.55 239.85 L 68.55 239.85 Q 64 235.4 61.8 229.15 L 61.8 229.15 L 61.8 229.15 Q 59.6 222.9 59.6 215.3 L 59.6 215.3 L 59.6 215.3 Q 59.6 210.4 60.25 205.65 L 60.25 205.65 L 60.25 205.65 Q 60.9 200.9 61.75 196.2 L 61.75 196.2 L 61.75 196.2 Q 62.6 191.5 63.25 186.8 L 63.25 186.8 L 63.25 186.8 Q 63.9 182.1 63.9 177.4 Z " fill="rgb(58,75,71)"/><path d=" M 925.1 177.4 L 925.1 177.4 L 925.1 177.4 Q 925.1 182.1 925.75 186.8 L 925.75 186.8 L 925.75 186.8 Q 926.4 191.5 927.25 196.2 L 927.25 196.2 L 927.25 196.2 Q 928.1 200.9 928.75 205.65 L 928.75 205.65 L 928.75 205.65 Q 929.4 210.4 929.4 215.3 L 929.4 215.3 L 929.4 215.3 Q 929.4 222.9 927.2 229.15 L 927.2 229.15 L 927.2 229.15 Q 925 235.4 920.45 239.85 L 920.45 239.85 L 920.45 239.85 Q 915.9 244.3 908.95 246.75 L 908.95 246.75 L 908.95 246.75 Q 902 249.2 892.6 249.2 L 892.6 249.2 L 887.3 249.2 L 887.3 238.3 L 887.3 238.3 Q 887.3 237 887.85 236 L 887.85 236 L 887.85 236 Q 888.4 235 889.25 234.4 L 889.25 234.4 L 889.25 234.4 Q 890.1 233.8 891 233.5 L 891 233.5 L 891 233.5 Q 891.9 233.2 892.6 233.2 L 892.6 233.2 L 893.5 233.2 L 893.5 233.2 Q 900.5 233.2 904.2 228.8 L 904.2 228.8 L 904.2 228.8 Q 907.9 224.4 907.9 216.8 L 907.9 216.8 L 907.9 216.8 Q 907.9 211.3 907.3 206.25 L 907.3 206.25 L 907.3 206.25 Q 906.7 201.2 906.05 196.45 L 906.05 196.45 L 906.05 196.45 Q 905.4 191.7 904.8 187.1 L 904.8 187.1 L 904.8 187.1 Q 904.2 182.5 904.2 177.8 L 904.2 177.8 L 904.2 177.8 Q 904.2 174.1 905.25 170.7 L 905.25 170.7 L 905.25 170.7 Q 906.3 167.3 908.3 164.5 L 908.3 164.5 L 908.3 164.5 Q 910.3 161.7 913.2 159.65 L 913.2 159.65 L 913.2 159.65 Q 916.1 157.6 919.7 156.5 L 919.7 156.5 L 919.7 156.5 Q 916.1 155.5 913.2 153.4 L 913.2 153.4 L 913.2 153.4 Q 910.3 151.3 908.3 148.55 L 908.3 148.55 L 908.3 148.55 Q 906.3 145.8 905.25 142.4 L 905.25 142.4 L 905.25 142.4 Q 904.2 139 904.2 135.2 L 904.2 135.2 L 904.2 135.2 Q 904.2 130.5 904.8 125.9 L 904.8 125.9 L 904.8 125.9 Q 905.4 121.3 906.05 116.55 L 906.05 116.55 L 906.05 116.55 Q 906.7 111.8 907.3 106.75 L 907.3 106.75 L 907.3 106.75 Q 907.9 101.7 907.9 96.2 L 907.9 96.2 L 907.9 96.2 Q 907.9 88.5 904.2 84.1 L 904.2 84.1 L 904.2 84.1 Q 900.5 79.7 893.5 79.7 L 893.5 79.7 L 892.6 79.7 L 892.6 79.7 Q 891.9 79.7 891 79.4 L 891 79.4 L 891 79.4 Q 890.1 79.1 889.25 78.5 L 889.25 78.5 L 889.25 78.5 Q 888.4 77.9 887.85 76.95 L 887.85 76.95 L 887.85 76.95 Q 887.3 76 887.3 74.7 L 887.3 74.7 L 887.3 63.7 L 892.6 63.7 L 892.6 63.7 Q 902 63.7 908.95 66.15 L 908.95 66.15 L 908.95 66.15 Q 915.9 68.6 920.45 73.1 L 920.45 73.1 L 920.45 73.1 Q 925 77.6 927.2 83.85 L 927.2 83.85 L 927.2 83.85 Q 929.4 90.1 929.4 97.7 L 929.4 97.7 L 929.4 97.7 Q 929.4 102.6 928.75 107.35 L 928.75 107.35 L 928.75 107.35 Q 928.1 112.1 927.25 116.8 L 927.25 116.8 L 927.25 116.8 Q 926.4 121.5 925.75 126.15 L 925.75 126.15 L 925.75 126.15 Q 925.1 130.8 925.1 135.5 L 925.1 135.5 L 925.1 135.5 Q 925.1 141.6 927.95 145.45 L 927.95 145.45 L 927.95 145.45 Q 930.8 149.3 937.1 149.3 L 937.1 149.3 L 937.1 163.6 L 937.1 163.6 Q 930.8 163.6 927.95 167.45 L 927.95 167.45 L 927.95 167.45 Q 925.1 171.3 925.1 177.4 Z " fill="rgb(58,75,71)"/><path d=" M 268.318 48.884 L 268.318 33.403 L 273.286 33.403 L 273.286 34.267 L 269.488 34.267 L 269.488 48.019 L 273.286 48.019 L 273.286 48.884 L 268.318 48.884 L 268.318 48.884 Z  M 276.472 41.683 L 276.472 34.339 L 277.984 34.339 L 277.984 41.72 L 277.984 41.72 Q 277.984 42.637 278.173 43.276 L 278.173 43.276 L 278.173 43.276 Q 278.362 43.915 278.695 44.302 L 278.695 44.302 L 278.695 44.302 Q 279.028 44.689 279.478 44.869 L 279.478 44.869 L 279.478 44.869 Q 279.928 45.049 280.468 45.049 L 280.468 45.049 L 280.468 45.049 Q 281.008 45.049 281.458 44.869 L 281.458 44.869 L 281.458 44.869 Q 281.908 44.689 282.25 44.302 L 282.25 44.302 L 282.25 44.302 Q 282.592 43.915 282.781 43.276 L 282.781 43.276 L 282.781 43.276 Q 282.97 42.637 282.97 41.72 L 282.97 41.72 L 282.97 34.339 L 284.428 34.339 L 284.428 41.683 L 284.428 41.683 Q 284.428 42.961 284.131 43.843 L 284.131 43.843 L 284.131 43.843 Q 283.834 44.726 283.312 45.292 L 283.312 45.292 L 283.312 45.292 Q 282.79 45.86 282.061 46.111 L 282.061 46.111 L 282.061 46.111 Q 281.332 46.363 280.468 46.363 L 280.468 46.363 L 280.468 46.363 Q 279.604 46.363 278.866 46.111 L 278.866 46.111 L 278.866 46.111 Q 278.128 45.86 277.597 45.292 L 277.597 45.292 L 277.597 45.292 Q 277.066 44.726 276.769 43.843 L 276.769 43.843 L 276.769 43.843 Q 276.472 42.961 276.472 41.683 L 276.472 41.683 L 276.472 41.683 Z  M 287.146 44.995 L 287.866 44.023 L 287.866 44.023 Q 288.604 44.563 289.45 44.887 L 289.45 44.887 L 289.45 44.887 Q 290.296 45.211 291.484 45.211 L 291.484 45.211 L 291.484 45.211 Q 292.672 45.211 293.248 44.815 L 293.248 44.815 L 293.248 44.815 Q 293.824 44.419 293.824 43.843 L 293.824 43.843 L 293.824 43.843 Q 293.824 43.339 293.203 42.943 L 293.203 42.943 L 293.203 42.943 Q 292.582 42.547 290.98 42.151 L 290.98 42.151 L 290.98 42.151 Q 290.296 41.989 289.693 41.756 L 289.693 41.756 L 289.693 41.756 Q 289.09 41.521 288.64 41.206 L 288.64 41.206 L 288.64 41.206 Q 288.19 40.891 287.92 40.513 L 287.92 40.513 L 287.92 40.513 Q 287.65 40.135 287.65 39.667 L 287.65 39.667 L 287.65 39.667 Q 287.65 39.145 287.884 38.686 L 287.884 38.686 L 287.884 38.686 Q 288.118 38.227 288.577 37.894 L 288.577 37.894 L 288.577 37.894 Q 289.036 37.561 289.729 37.372 L 289.729 37.372 L 289.729 37.372 Q 290.422 37.183 291.322 37.183 L 291.322 37.183 L 291.322 37.183 Q 292.312 37.183 293.248 37.516 L 293.248 37.516 L 293.248 37.516 Q 294.184 37.849 294.832 38.299 L 294.832 38.299 L 294.112 39.253 L 294.112 39.253 Q 293.536 38.839 292.834 38.587 L 292.834 38.587 L 292.834 38.587 Q 292.132 38.335 291.322 38.335 L 291.322 38.335 L 291.322 38.335 Q 290.71 38.335 290.296 38.434 L 290.296 38.434 L 290.296 38.434 Q 289.882 38.533 289.63 38.704 L 289.63 38.704 L 289.63 38.704 Q 289.378 38.875 289.27 39.11 L 289.27 39.11 L 289.27 39.11 Q 289.162 39.343 289.162 39.595 L 289.162 39.595 L 289.162 39.595 Q 289.162 40.135 289.9 40.486 L 289.9 40.486 L 289.9 40.486 Q 290.638 40.837 291.826 41.143 L 291.826 41.143 L 291.826 41.143 Q 293.608 41.593 294.463 42.169 L 294.463 42.169 L 294.463 42.169 Q 295.318 42.745 295.318 43.753 L 295.318 43.753 L 295.318 43.753 Q 295.318 44.293 295.066 44.762 L 295.066 44.762 L 295.066 44.762 Q 294.814 45.229 294.319 45.589 L 294.319 45.589 L 294.319 45.589 Q 293.824 45.949 293.095 46.156 L 293.095 46.156 L 293.095 46.156 Q 292.366 46.363 291.43 46.363 L 291.43 46.363 L 291.43 46.363 Q 290.134 46.363 289.045 45.958 L 289.045 45.958 L 289.045 45.958 Q 287.956 45.553 287.146 44.995 L 287.146 44.995 L 287.146 44.995 Z  M 297.892 41.791 L 297.892 41.791 L 297.892 41.791 Q 297.892 40.711 298.27 39.857 L 298.27 39.857 L 298.27 39.857 Q 298.648 39.001 299.269 38.407 L 299.269 38.407 L 299.269 38.407 Q 299.89 37.813 300.691 37.498 L 300.691 37.498 L 300.691 37.498 Q 301.492 37.183 302.338 37.183 L 302.338 37.183 L 302.338 37.183 Q 303.274 37.183 304.012 37.48 L 304.012 37.48 L 304.012 37.48 Q 304.75 37.777 305.263 38.317 L 305.263 38.317 L 305.263 38.317 Q 305.776 38.857 306.046 39.613 L 306.046 39.613 L 306.046 39.613 Q 306.316 40.369 306.316 41.287 L 306.316 41.287 L 306.316 41.287 Q 306.316 41.521 306.307 41.747 L 306.307 41.747 L 306.307 41.747 Q 306.298 41.971 306.262 42.134 L 306.262 42.134 L 299.422 42.134 L 299.422 42.134 Q 299.44 42.835 299.701 43.393 L 299.701 43.393 L 299.701 43.393 Q 299.962 43.951 300.403 44.348 L 300.403 44.348 L 300.403 44.348 Q 300.844 44.744 301.447 44.959 L 301.447 44.959 L 301.447 44.959 Q 302.05 45.175 302.77 45.175 L 302.77 45.175 L 302.77 45.175 Q 303.544 45.175 304.183 44.959 L 304.183 44.959 L 304.183 44.959 Q 304.822 44.744 305.434 44.366 L 305.434 44.366 L 305.956 45.337 L 305.956 45.337 Q 305.308 45.751 304.48 46.057 L 304.48 46.057 L 304.48 46.057 Q 303.652 46.363 302.59 46.363 L 302.59 46.363 L 302.59 46.363 Q 301.618 46.363 300.763 46.048 L 300.763 46.048 L 300.763 46.048 Q 299.908 45.733 299.269 45.149 L 299.269 45.149 L 299.269 45.149 Q 298.63 44.563 298.261 43.717 L 298.261 43.717 L 298.261 43.717 Q 297.892 42.872 297.892 41.791 Z  M 299.404 41.071 L 304.948 41.071 L 304.948 41.071 Q 304.948 39.757 304.264 39.055 L 304.264 39.055 L 304.264 39.055 Q 303.58 38.354 302.356 38.354 L 302.356 38.354 L 302.356 38.354 Q 301.816 38.354 301.321 38.533 L 301.321 38.533 L 301.321 38.533 Q 300.826 38.713 300.43 39.064 L 300.43 39.064 L 300.43 39.064 Q 300.034 39.415 299.764 39.919 L 299.764 39.919 L 299.764 39.919 Q 299.494 40.423 299.404 41.071 L 299.404 41.071 L 299.404 41.071 Z  M 310.078 46.147 L 310.078 37.399 L 311.302 37.399 L 311.428 39.47 L 311.482 39.47 L 311.482 39.47 Q 312.166 38.407 313.165 37.795 L 313.165 37.795 L 313.165 37.795 Q 314.164 37.183 315.388 37.183 L 315.388 37.183 L 315.388 37.183 Q 315.874 37.183 316.288 37.264 L 316.288 37.264 L 316.288 37.264 Q 316.702 37.345 317.116 37.543 L 317.116 37.543 L 316.774 38.821 L 316.774 38.821 Q 316.306 38.659 315.991 38.587 L 315.991 38.587 L 315.991 38.587 Q 315.676 38.515 315.154 38.515 L 315.154 38.515 L 315.154 38.515 Q 314.164 38.515 313.255 39.082 L 313.255 39.082 L 313.255 39.082 Q 312.346 39.649 311.554 41.017 L 311.554 41.017 L 311.554 46.147 L 310.078 46.147 L 310.078 46.147 Z  M 319.438 40.244 L 319.438 40.244 L 319.438 40.244 Q 319.438 38.821 319.825 37.687 L 319.825 37.687 L 319.825 37.687 Q 320.212 36.553 320.914 35.761 L 320.914 35.761 L 320.914 35.761 Q 321.616 34.97 322.588 34.546 L 322.588 34.546 L 322.588 34.546 Q 323.56 34.123 324.712 34.123 L 324.712 34.123 L 324.712 34.123 Q 325.792 34.123 326.602 34.555 L 326.602 34.555 L 326.602 34.555 Q 327.412 34.987 327.934 35.563 L 327.934 35.563 L 327.088 36.517 L 327.088 36.517 Q 326.62 36.031 326.044 35.734 L 326.044 35.734 L 326.044 35.734 Q 325.468 35.437 324.712 35.437 L 324.712 35.437 L 324.712 35.437 Q 323.866 35.437 323.173 35.77 L 323.173 35.77 L 323.173 35.77 Q 322.48 36.104 321.994 36.724 L 321.994 36.724 L 321.994 36.724 Q 321.508 37.345 321.247 38.227 L 321.247 38.227 L 321.247 38.227 Q 320.986 39.11 320.986 40.207 L 320.986 40.207 L 320.986 40.207 Q 320.986 41.323 321.247 42.214 L 321.247 42.214 L 321.247 42.214 Q 321.508 43.105 321.994 43.735 L 321.994 43.735 L 321.994 43.735 Q 322.48 44.366 323.173 44.707 L 323.173 44.707 L 323.173 44.707 Q 323.866 45.049 324.712 45.049 L 324.712 45.049 L 324.712 45.049 Q 325.522 45.049 326.152 44.707 L 326.152 44.707 L 326.152 44.707 Q 326.782 44.366 327.358 43.735 L 327.358 43.735 L 328.222 44.653 L 328.222 44.653 Q 327.52 45.463 326.638 45.913 L 326.638 45.913 L 326.638 45.913 Q 325.756 46.363 324.622 46.363 L 324.622 46.363 L 324.622 46.363 Q 323.506 46.363 322.561 45.949 L 322.561 45.949 L 322.561 45.949 Q 321.616 45.535 320.923 44.753 L 320.923 44.753 L 320.923 44.753 Q 320.23 43.97 319.834 42.826 L 319.834 42.826 L 319.834 42.826 Q 319.438 41.683 319.438 40.244 Z  M 330.256 44.617 L 331.156 43.573 L 331.156 43.573 Q 331.822 44.239 332.704 44.644 L 332.704 44.644 L 332.704 44.644 Q 333.586 45.049 334.558 45.049 L 334.558 45.049 L 334.558 45.049 Q 335.818 45.049 336.502 44.518 L 336.502 44.518 L 336.502 44.518 Q 337.186 43.988 337.186 43.123 L 337.186 43.123 L 337.186 43.123 Q 337.186 42.673 337.024 42.358 L 337.024 42.358 L 337.024 42.358 Q 336.862 42.043 336.574 41.818 L 336.574 41.818 L 336.574 41.818 Q 336.286 41.593 335.899 41.413 L 335.899 41.413 L 335.899 41.413 Q 335.512 41.233 335.062 41.035 L 335.062 41.035 L 333.37 40.297 L 333.37 40.297 Q 332.92 40.117 332.47 39.866 L 332.47 39.866 L 332.47 39.866 Q 332.02 39.613 331.651 39.253 L 331.651 39.253 L 331.651 39.253 Q 331.282 38.893 331.048 38.398 L 331.048 38.398 L 331.048 38.398 Q 330.814 37.903 330.814 37.255 L 330.814 37.255 L 330.814 37.255 Q 330.814 36.589 331.102 36.013 L 331.102 36.013 L 331.102 36.013 Q 331.39 35.437 331.903 35.014 L 331.903 35.014 L 331.903 35.014 Q 332.416 34.592 333.127 34.357 L 333.127 34.357 L 333.127 34.357 Q 333.838 34.123 334.684 34.123 L 334.684 34.123 L 334.684 34.123 Q 335.8 34.123 336.736 34.528 L 336.736 34.528 L 336.736 34.528 Q 337.672 34.933 338.32 35.581 L 338.32 35.581 L 337.528 36.553 L 337.528 36.553 Q 336.952 36.031 336.259 35.734 L 336.259 35.734 L 336.259 35.734 Q 335.566 35.437 334.684 35.437 L 334.684 35.437 L 334.684 35.437 Q 333.604 35.437 332.974 35.896 L 332.974 35.896 L 332.974 35.896 Q 332.344 36.355 332.344 37.165 L 332.344 37.165 L 332.344 37.165 Q 332.344 37.598 332.533 37.894 L 332.533 37.894 L 332.533 37.894 Q 332.722 38.191 333.019 38.416 L 333.019 38.416 L 333.019 38.416 Q 333.316 38.641 333.694 38.803 L 333.694 38.803 L 333.694 38.803 Q 334.072 38.965 334.45 39.128 L 334.45 39.128 L 336.106 39.848 L 336.106 39.848 Q 336.646 40.063 337.123 40.342 L 337.123 40.342 L 337.123 40.342 Q 337.6 40.622 337.951 40.991 L 337.951 40.991 L 337.951 40.991 Q 338.302 41.36 338.509 41.854 L 338.509 41.854 L 338.509 41.854 Q 338.716 42.349 338.716 42.997 L 338.716 42.997 L 338.716 42.997 Q 338.716 43.699 338.428 44.311 L 338.428 44.311 L 338.428 44.311 Q 338.14 44.923 337.6 45.382 L 337.6 45.382 L 337.6 45.382 Q 337.06 45.842 336.286 46.102 L 336.286 46.102 L 336.286 46.102 Q 335.512 46.363 334.54 46.363 L 334.54 46.363 L 334.54 46.363 Q 333.244 46.363 332.155 45.896 L 332.155 45.896 L 332.155 45.896 Q 331.066 45.427 330.256 44.617 L 330.256 44.617 L 330.256 44.617 Z  M 341.056 44.617 L 341.956 43.573 L 341.956 43.573 Q 342.622 44.239 343.504 44.644 L 343.504 44.644 L 343.504 44.644 Q 344.386 45.049 345.358 45.049 L 345.358 45.049 L 345.358 45.049 Q 346.618 45.049 347.302 44.518 L 347.302 44.518 L 347.302 44.518 Q 347.986 43.988 347.986 43.123 L 347.986 43.123 L 347.986 43.123 Q 347.986 42.673 347.824 42.358 L 347.824 42.358 L 347.824 42.358 Q 347.662 42.043 347.374 41.818 L 347.374 41.818 L 347.374 41.818 Q 347.086 41.593 346.699 41.413 L 346.699 41.413 L 346.699 41.413 Q 346.312 41.233 345.862 41.035 L 345.862 41.035 L 344.17 40.297 L 344.17 40.297 Q 343.72 40.117 343.27 39.866 L 343.27 39.866 L 343.27 39.866 Q 342.82 39.613 342.451 39.253 L 342.451 39.253 L 342.451 39.253 Q 342.082 38.893 341.848 38.398 L 341.848 38.398 L 341.848 38.398 Q 341.614 37.903 341.614 37.255 L 341.614 37.255 L 341.614 37.255 Q 341.614 36.589 341.902 36.013 L 341.902 36.013 L 341.902 36.013 Q 342.19 35.437 342.703 35.014 L 342.703 35.014 L 342.703 35.014 Q 343.216 34.592 343.927 34.357 L 343.927 34.357 L 343.927 34.357 Q 344.638 34.123 345.484 34.123 L 345.484 34.123 L 345.484 34.123 Q 346.6 34.123 347.536 34.528 L 347.536 34.528 L 347.536 34.528 Q 348.472 34.933 349.12 35.581 L 349.12 35.581 L 348.328 36.553 L 348.328 36.553 Q 347.752 36.031 347.059 35.734 L 347.059 35.734 L 347.059 35.734 Q 346.366 35.437 345.484 35.437 L 345.484 35.437 L 345.484 35.437 Q 344.404 35.437 343.774 35.896 L 343.774 35.896 L 343.774 35.896 Q 343.144 36.355 343.144 37.165 L 343.144 37.165 L 343.144 37.165 Q 343.144 37.598 343.333 37.894 L 343.333 37.894 L 343.333 37.894 Q 343.522 38.191 343.819 38.416 L 343.819 38.416 L 343.819 38.416 Q 344.116 38.641 344.494 38.803 L 344.494 38.803 L 344.494 38.803 Q 344.872 38.965 345.25 39.128 L 345.25 39.128 L 346.906 39.848 L 346.906 39.848 Q 347.446 40.063 347.923 40.342 L 347.923 40.342 L 347.923 40.342 Q 348.4 40.622 348.751 40.991 L 348.751 40.991 L 348.751 40.991 Q 349.102 41.36 349.309 41.854 L 349.309 41.854 L 349.309 41.854 Q 349.516 42.349 349.516 42.997 L 349.516 42.997 L 349.516 42.997 Q 349.516 43.699 349.228 44.311 L 349.228 44.311 L 349.228 44.311 Q 348.94 44.923 348.4 45.382 L 348.4 45.382 L 348.4 45.382 Q 347.86 45.842 347.086 46.102 L 347.086 46.102 L 347.086 46.102 Q 346.312 46.363 345.34 46.363 L 345.34 46.363 L 345.34 46.363 Q 344.044 46.363 342.955 45.896 L 342.955 45.896 L 342.955 45.896 Q 341.866 45.427 341.056 44.617 L 341.056 44.617 L 341.056 44.617 Z  M 352.432 48.019 L 356.212 48.019 L 356.212 34.267 L 352.432 34.267 L 352.432 33.403 L 357.4 33.403 L 357.4 48.884 L 352.432 48.884 L 352.432 48.019 L 352.432 48.019 Z  M 165.34 37.399 L 165.34 46.147 L 164.134 46.147 L 164.008 44.617 L 163.936 44.617 L 163.936 44.617 Q 163.27 45.391 162.487 45.878 L 162.487 45.878 L 162.487 45.878 Q 161.704 46.363 160.678 46.363 L 160.678 46.363 L 160.678 46.363 Q 159.094 46.363 158.365 45.473 L 158.365 45.473 L 158.365 45.473 Q 157.636 44.581 157.636 42.835 L 157.636 42.835 L 157.636 37.399 L 159.13 37.399 L 159.13 42.637 L 159.13 42.637 Q 159.13 43.879 159.589 44.482 L 159.589 44.482 L 159.589 44.482 Q 160.048 45.085 161.146 45.085 L 161.146 45.085 L 161.146 45.085 Q 161.902 45.085 162.514 44.698 L 162.514 44.698 L 162.514 44.698 Q 163.126 44.311 163.864 43.465 L 163.864 43.465 L 163.864 37.399 L 165.34 37.399 L 165.34 37.399 Z  M 168.346 44.995 L 169.066 44.023 L 169.066 44.023 Q 169.804 44.563 170.65 44.887 L 170.65 44.887 L 170.65 44.887 Q 171.496 45.211 172.684 45.211 L 172.684 45.211 L 172.684 45.211 Q 173.872 45.211 174.448 44.815 L 174.448 44.815 L 174.448 44.815 Q 175.024 44.419 175.024 43.843 L 175.024 43.843 L 175.024 43.843 Q 175.024 43.339 174.403 42.943 L 174.403 42.943 L 174.403 42.943 Q 173.782 42.547 172.18 42.151 L 172.18 42.151 L 172.18 42.151 Q 171.496 41.989 170.893 41.756 L 170.893 41.756 L 170.893 41.756 Q 170.29 41.521 169.84 41.206 L 169.84 41.206 L 169.84 41.206 Q 169.39 40.891 169.12 40.513 L 169.12 40.513 L 169.12 40.513 Q 168.85 40.135 168.85 39.667 L 168.85 39.667 L 168.85 39.667 Q 168.85 39.145 169.084 38.686 L 169.084 38.686 L 169.084 38.686 Q 169.318 38.227 169.777 37.894 L 169.777 37.894 L 169.777 37.894 Q 170.236 37.561 170.929 37.372 L 170.929 37.372 L 170.929 37.372 Q 171.622 37.183 172.522 37.183 L 172.522 37.183 L 172.522 37.183 Q 173.512 37.183 174.448 37.516 L 174.448 37.516 L 174.448 37.516 Q 175.384 37.849 176.032 38.299 L 176.032 38.299 L 175.312 39.253 L 175.312 39.253 Q 174.736 38.839 174.034 38.587 L 174.034 38.587 L 174.034 38.587 Q 173.332 38.335 172.522 38.335 L 172.522 38.335 L 172.522 38.335 Q 171.91 38.335 171.496 38.434 L 171.496 38.434 L 171.496 38.434 Q 171.082 38.533 170.83 38.704 L 170.83 38.704 L 170.83 38.704 Q 170.578 38.875 170.47 39.11 L 170.47 39.11 L 170.47 39.11 Q 170.362 39.343 170.362 39.595 L 170.362 39.595 L 170.362 39.595 Q 170.362 40.135 171.1 40.486 L 171.1 40.486 L 171.1 40.486 Q 171.838 40.837 173.026 41.143 L 173.026 41.143 L 173.026 41.143 Q 174.808 41.593 175.663 42.169 L 175.663 42.169 L 175.663 42.169 Q 176.518 42.745 176.518 43.753 L 176.518 43.753 L 176.518 43.753 Q 176.518 44.293 176.266 44.762 L 176.266 44.762 L 176.266 44.762 Q 176.014 45.229 175.519 45.589 L 175.519 45.589 L 175.519 45.589 Q 175.024 45.949 174.295 46.156 L 174.295 46.156 L 174.295 46.156 Q 173.566 46.363 172.63 46.363 L 172.63 46.363 L 172.63 46.363 Q 171.334 46.363 170.245 45.958 L 170.245 45.958 L 170.245 45.958 Q 169.156 45.553 168.346 44.995 L 168.346 44.995 L 168.346 44.995 Z  M 179.092 41.791 L 179.092 41.791 L 179.092 41.791 Q 179.092 40.711 179.47 39.857 L 179.47 39.857 L 179.47 39.857 Q 179.848 39.001 180.469 38.407 L 180.469 38.407 L 180.469 38.407 Q 181.09 37.813 181.891 37.498 L 181.891 37.498 L 181.891 37.498 Q 182.692 37.183 183.538 37.183 L 183.538 37.183 L 183.538 37.183 Q 184.474 37.183 185.212 37.48 L 185.212 37.48 L 185.212 37.48 Q 185.95 37.777 186.463 38.317 L 186.463 38.317 L 186.463 38.317 Q 186.976 38.857 187.246 39.613 L 187.246 39.613 L 187.246 39.613 Q 187.516 40.369 187.516 41.287 L 187.516 41.287 L 187.516 41.287 Q 187.516 41.521 187.507 41.747 L 187.507 41.747 L 187.507 41.747 Q 187.498 41.971 187.462 42.134 L 187.462 42.134 L 180.622 42.134 L 180.622 42.134 Q 180.64 42.835 180.901 43.393 L 180.901 43.393 L 180.901 43.393 Q 181.162 43.951 181.603 44.348 L 181.603 44.348 L 181.603 44.348 Q 182.044 44.744 182.647 44.959 L 182.647 44.959 L 182.647 44.959 Q 183.25 45.175 183.97 45.175 L 183.97 45.175 L 183.97 45.175 Q 184.744 45.175 185.383 44.959 L 185.383 44.959 L 185.383 44.959 Q 186.022 44.744 186.634 44.366 L 186.634 44.366 L 187.156 45.337 L 187.156 45.337 Q 186.508 45.751 185.68 46.057 L 185.68 46.057 L 185.68 46.057 Q 184.852 46.363 183.79 46.363 L 183.79 46.363 L 183.79 46.363 Q 182.818 46.363 181.963 46.048 L 181.963 46.048 L 181.963 46.048 Q 181.108 45.733 180.469 45.149 L 180.469 45.149 L 180.469 45.149 Q 179.83 44.563 179.461 43.717 L 179.461 43.717 L 179.461 43.717 Q 179.092 42.872 179.092 41.791 Z  M 180.604 41.071 L 186.148 41.071 L 186.148 41.071 Q 186.148 39.757 185.464 39.055 L 185.464 39.055 L 185.464 39.055 Q 184.78 38.354 183.556 38.354 L 183.556 38.354 L 183.556 38.354 Q 183.016 38.354 182.521 38.533 L 182.521 38.533 L 182.521 38.533 Q 182.026 38.713 181.63 39.064 L 181.63 39.064 L 181.63 39.064 Q 181.234 39.415 180.964 39.919 L 180.964 39.919 L 180.964 39.919 Q 180.694 40.423 180.604 41.071 L 180.604 41.071 L 180.604 41.071 Z  M 191.278 46.147 L 191.278 37.399 L 192.502 37.399 L 192.628 39.47 L 192.682 39.47 L 192.682 39.47 Q 193.366 38.407 194.365 37.795 L 194.365 37.795 L 194.365 37.795 Q 195.364 37.183 196.588 37.183 L 196.588 37.183 L 196.588 37.183 Q 197.074 37.183 197.488 37.264 L 197.488 37.264 L 197.488 37.264 Q 197.902 37.345 198.316 37.543 L 198.316 37.543 L 197.974 38.821 L 197.974 38.821 Q 197.506 38.659 197.191 38.587 L 197.191 38.587 L 197.191 38.587 Q 196.876 38.515 196.354 38.515 L 196.354 38.515 L 196.354 38.515 Q 195.364 38.515 194.455 39.082 L 194.455 39.082 L 194.455 39.082 Q 193.546 39.649 192.754 41.017 L 192.754 41.017 L 192.754 46.147 L 191.278 46.147 L 191.278 46.147 Z  M 200.656 44.617 L 201.556 43.573 L 201.556 43.573 Q 202.222 44.239 203.104 44.644 L 203.104 44.644 L 203.104 44.644 Q 203.986 45.049 204.958 45.049 L 204.958 45.049 L 204.958 45.049 Q 206.218 45.049 206.902 44.518 L 206.902 44.518 L 206.902 44.518 Q 207.586 43.988 207.586 43.123 L 207.586 43.123 L 207.586 43.123 Q 207.586 42.673 207.424 42.358 L 207.424 42.358 L 207.424 42.358 Q 207.262 42.043 206.974 41.818 L 206.974 41.818 L 206.974 41.818 Q 206.686 41.593 206.299 41.413 L 206.299 41.413 L 206.299 41.413 Q 205.912 41.233 205.462 41.035 L 205.462 41.035 L 203.77 40.297 L 203.77 40.297 Q 203.32 40.117 202.87 39.866 L 202.87 39.866 L 202.87 39.866 Q 202.42 39.613 202.051 39.253 L 202.051 39.253 L 202.051 39.253 Q 201.682 38.893 201.448 38.398 L 201.448 38.398 L 201.448 38.398 Q 201.214 37.903 201.214 37.255 L 201.214 37.255 L 201.214 37.255 Q 201.214 36.589 201.502 36.013 L 201.502 36.013 L 201.502 36.013 Q 201.79 35.437 202.303 35.014 L 202.303 35.014 L 202.303 35.014 Q 202.816 34.592 203.527 34.357 L 203.527 34.357 L 203.527 34.357 Q 204.238 34.123 205.084 34.123 L 205.084 34.123 L 205.084 34.123 Q 206.2 34.123 207.136 34.528 L 207.136 34.528 L 207.136 34.528 Q 208.072 34.933 208.72 35.581 L 208.72 35.581 L 207.928 36.553 L 207.928 36.553 Q 207.352 36.031 206.659 35.734 L 206.659 35.734 L 206.659 35.734 Q 205.966 35.437 205.084 35.437 L 205.084 35.437 L 205.084 35.437 Q 204.004 35.437 203.374 35.896 L 203.374 35.896 L 203.374 35.896 Q 202.744 36.355 202.744 37.165 L 202.744 37.165 L 202.744 37.165 Q 202.744 37.598 202.933 37.894 L 202.933 37.894 L 202.933 37.894 Q 203.122 38.191 203.419 38.416 L 203.419 38.416 L 203.419 38.416 Q 203.716 38.641 204.094 38.803 L 204.094 38.803 L 204.094 38.803 Q 204.472 38.965 204.85 39.128 L 204.85 39.128 L 206.506 39.848 L 206.506 39.848 Q 207.046 40.063 207.523 40.342 L 207.523 40.342 L 207.523 40.342 Q 208 40.622 208.351 40.991 L 208.351 40.991 L 208.351 40.991 Q 208.702 41.36 208.909 41.854 L 208.909 41.854 L 208.909 41.854 Q 209.116 42.349 209.116 42.997 L 209.116 42.997 L 209.116 42.997 Q 209.116 43.699 208.828 44.311 L 208.828 44.311 L 208.828 44.311 Q 208.54 44.923 208 45.382 L 208 45.382 L 208 45.382 Q 207.46 45.842 206.686 46.102 L 206.686 46.102 L 206.686 46.102 Q 205.912 46.363 204.94 46.363 L 204.94 46.363 L 204.94 46.363 Q 203.644 46.363 202.555 45.896 L 202.555 45.896 L 202.555 45.896 Q 201.466 45.427 200.656 44.617 L 200.656 44.617 L 200.656 44.617 Z  M 213.958 42.745 L 213.958 38.605 L 211.492 38.605 L 211.492 37.489 L 214.012 37.399 L 214.21 34.951 L 215.434 34.951 L 215.434 37.399 L 219.736 37.399 L 219.736 38.605 L 215.434 38.605 L 215.434 42.763 L 215.434 42.763 Q 215.434 43.357 215.542 43.798 L 215.542 43.798 L 215.542 43.798 Q 215.65 44.239 215.902 44.545 L 215.902 44.545 L 215.902 44.545 Q 216.154 44.851 216.586 45.004 L 216.586 45.004 L 216.586 45.004 Q 217.018 45.158 217.648 45.158 L 217.648 45.158 L 217.648 45.158 Q 218.278 45.158 218.782 45.049 L 218.782 45.049 L 218.782 45.049 Q 219.286 44.941 219.754 44.762 L 219.754 44.762 L 220.078 45.842 L 220.078 45.842 Q 219.484 46.057 218.764 46.21 L 218.764 46.21 L 218.764 46.21 Q 218.044 46.363 217.324 46.363 L 217.324 46.363 L 217.324 46.363 Q 216.37 46.363 215.722 46.102 L 215.722 46.102 L 215.722 46.102 Q 215.074 45.842 214.687 45.364 L 214.687 45.364 L 214.687 45.364 Q 214.3 44.887 214.129 44.221 L 214.129 44.221 L 214.129 44.221 Q 213.958 43.555 213.958 42.745 L 213.958 42.745 L 213.958 42.745 Z  M 222.562 48.559 L 222.562 48.559 L 222.562 48.559 Q 222.742 48.613 222.949 48.649 L 222.949 48.649 L 222.949 48.649 Q 223.156 48.685 223.354 48.685 L 223.354 48.685 L 223.354 48.685 Q 224.272 48.685 224.848 48.155 L 224.848 48.155 L 224.848 48.155 Q 225.424 47.623 225.748 46.813 L 225.748 46.813 L 226.018 46.165 L 221.932 37.399 L 223.426 37.399 L 225.568 42.241 L 225.568 42.241 Q 225.82 42.817 226.099 43.483 L 226.099 43.483 L 226.099 43.483 Q 226.378 44.149 226.648 44.78 L 226.648 44.78 L 226.72 44.78 L 226.72 44.78 Q 226.954 44.149 227.197 43.492 L 227.197 43.492 L 227.197 43.492 Q 227.44 42.835 227.656 42.241 L 227.656 42.241 L 229.564 37.399 L 230.968 37.399 L 227.116 46.867 L 227.116 46.867 Q 226.864 47.515 226.54 48.073 L 226.54 48.073 L 226.54 48.073 Q 226.216 48.631 225.766 49.036 L 225.766 49.036 L 225.766 49.036 Q 225.316 49.441 224.731 49.675 L 224.731 49.675 L 224.731 49.675 Q 224.146 49.909 223.408 49.909 L 223.408 49.909 L 223.408 49.909 Q 222.76 49.909 222.256 49.729 L 222.256 49.729 L 222.562 48.559 L 222.562 48.559 Z  M 233.308 34.537 L 233.308 33.331 L 237.772 33.331 L 237.772 43.321 L 237.772 43.321 Q 237.772 44.293 238.231 44.717 L 238.231 44.717 L 238.231 44.717 Q 238.69 45.14 239.482 45.14 L 239.482 45.14 L 239.482 45.14 Q 240.202 45.14 241.138 44.726 L 241.138 44.726 L 241.516 45.842 L 241.516 45.842 Q 240.922 46.057 240.4 46.21 L 240.4 46.21 L 240.4 46.21 Q 239.878 46.363 239.158 46.363 L 239.158 46.363 L 239.158 46.363 Q 237.754 46.363 237.025 45.571 L 237.025 45.571 L 237.025 45.571 Q 236.296 44.78 236.296 43.213 L 236.296 43.213 L 236.296 34.537 L 233.308 34.537 L 233.308 34.537 Z  M 243.892 41.791 L 243.892 41.791 L 243.892 41.791 Q 243.892 40.711 244.27 39.857 L 244.27 39.857 L 244.27 39.857 Q 244.648 39.001 245.269 38.407 L 245.269 38.407 L 245.269 38.407 Q 245.89 37.813 246.691 37.498 L 246.691 37.498 L 246.691 37.498 Q 247.492 37.183 248.338 37.183 L 248.338 37.183 L 248.338 37.183 Q 249.274 37.183 250.012 37.48 L 250.012 37.48 L 250.012 37.48 Q 250.75 37.777 251.263 38.317 L 251.263 38.317 L 251.263 38.317 Q 251.776 38.857 252.046 39.613 L 252.046 39.613 L 252.046 39.613 Q 252.316 40.369 252.316 41.287 L 252.316 41.287 L 252.316 41.287 Q 252.316 41.521 252.307 41.747 L 252.307 41.747 L 252.307 41.747 Q 252.298 41.971 252.262 42.134 L 252.262 42.134 L 245.422 42.134 L 245.422 42.134 Q 245.44 42.835 245.701 43.393 L 245.701 43.393 L 245.701 43.393 Q 245.962 43.951 246.403 44.348 L 246.403 44.348 L 246.403 44.348 Q 246.844 44.744 247.447 44.959 L 247.447 44.959 L 247.447 44.959 Q 248.05 45.175 248.77 45.175 L 248.77 45.175 L 248.77 45.175 Q 249.544 45.175 250.183 44.959 L 250.183 44.959 L 250.183 44.959 Q 250.822 44.744 251.434 44.366 L 251.434 44.366 L 251.956 45.337 L 251.956 45.337 Q 251.308 45.751 250.48 46.057 L 250.48 46.057 L 250.48 46.057 Q 249.652 46.363 248.59 46.363 L 248.59 46.363 L 248.59 46.363 Q 247.618 46.363 246.763 46.048 L 246.763 46.048 L 246.763 46.048 Q 245.908 45.733 245.269 45.149 L 245.269 45.149 L 245.269 45.149 Q 244.63 44.563 244.261 43.717 L 244.261 43.717 L 244.261 43.717 Q 243.892 42.872 243.892 41.791 Z  M 245.404 41.071 L 250.948 41.071 L 250.948 41.071 Q 250.948 39.757 250.264 39.055 L 250.264 39.055 L 250.264 39.055 Q 249.58 38.354 248.356 38.354 L 248.356 38.354 L 248.356 38.354 Q 247.816 38.354 247.321 38.533 L 247.321 38.533 L 247.321 38.533 Q 246.826 38.713 246.43 39.064 L 246.43 39.064 L 246.43 39.064 Q 246.034 39.415 245.764 39.919 L 245.764 39.919 L 245.764 39.919 Q 245.494 40.423 245.404 41.071 L 245.404 41.071 L 245.404 41.071 Z  M 106.192 44.851 L 106.192 44.851 L 106.192 44.851 Q 106.192 44.167 106.615 43.744 L 106.615 43.744 L 106.615 43.744 Q 107.038 43.321 107.65 43.321 L 107.65 43.321 L 107.65 43.321 Q 108.262 43.321 108.685 43.744 L 108.685 43.744 L 108.685 43.744 Q 109.108 44.167 109.108 44.851 L 109.108 44.851 L 109.108 44.851 Q 109.108 45.535 108.685 45.949 L 108.685 45.949 L 108.685 45.949 Q 108.262 46.363 107.65 46.363 L 107.65 46.363 L 107.65 46.363 Q 107.038 46.363 106.615 45.949 L 106.615 45.949 L 106.615 45.949 Q 106.192 45.535 106.192 44.851 Z  M 114.49 41.791 L 114.49 41.791 L 114.49 41.791 Q 114.49 40.693 114.877 39.838 L 114.877 39.838 L 114.877 39.838 Q 115.264 38.983 115.93 38.389 L 115.93 38.389 L 115.93 38.389 Q 116.596 37.795 117.487 37.489 L 117.487 37.489 L 117.487 37.489 Q 118.378 37.183 119.368 37.183 L 119.368 37.183 L 119.368 37.183 Q 120.448 37.183 121.231 37.561 L 121.231 37.561 L 121.231 37.561 Q 122.014 37.939 122.554 38.461 L 122.554 38.461 L 121.816 39.415 L 121.816 39.415 Q 121.276 38.947 120.691 38.677 L 120.691 38.677 L 120.691 38.677 Q 120.106 38.407 119.422 38.407 L 119.422 38.407 L 119.422 38.407 Q 118.666 38.407 118.036 38.65 L 118.036 38.65 L 118.036 38.65 Q 117.406 38.893 116.965 39.343 L 116.965 39.343 L 116.965 39.343 Q 116.524 39.793 116.272 40.414 L 116.272 40.414 L 116.272 40.414 Q 116.02 41.035 116.02 41.791 L 116.02 41.791 L 116.02 41.791 Q 116.02 42.547 116.263 43.159 L 116.263 43.159 L 116.263 43.159 Q 116.506 43.771 116.947 44.212 L 116.947 44.212 L 116.947 44.212 Q 117.388 44.653 118.009 44.896 L 118.009 44.896 L 118.009 44.896 Q 118.63 45.14 119.386 45.14 L 119.386 45.14 L 119.386 45.14 Q 120.196 45.14 120.871 44.824 L 120.871 44.824 L 120.871 44.824 Q 121.546 44.509 122.104 44.041 L 122.104 44.041 L 122.752 44.995 L 122.752 44.995 Q 122.032 45.643 121.141 46.003 L 121.141 46.003 L 121.141 46.003 Q 120.25 46.363 119.278 46.363 L 119.278 46.363 L 119.278 46.363 Q 118.252 46.363 117.379 46.057 L 117.379 46.057 L 117.379 46.057 Q 116.506 45.751 115.858 45.166 L 115.858 45.166 L 115.858 45.166 Q 115.21 44.581 114.85 43.726 L 114.85 43.726 L 114.85 43.726 Q 114.49 42.872 114.49 41.791 Z  M 125.146 44.995 L 125.866 44.023 L 125.866 44.023 Q 126.604 44.563 127.45 44.887 L 127.45 44.887 L 127.45 44.887 Q 128.296 45.211 129.484 45.211 L 129.484 45.211 L 129.484 45.211 Q 130.672 45.211 131.248 44.815 L 131.248 44.815 L 131.248 44.815 Q 131.824 44.419 131.824 43.843 L 131.824 43.843 L 131.824 43.843 Q 131.824 43.339 131.203 42.943 L 131.203 42.943 L 131.203 42.943 Q 130.582 42.547 128.98 42.151 L 128.98 42.151 L 128.98 42.151 Q 128.296 41.989 127.693 41.756 L 127.693 41.756 L 127.693 41.756 Q 127.09 41.521 126.64 41.206 L 126.64 41.206 L 126.64 41.206 Q 126.19 40.891 125.92 40.513 L 125.92 40.513 L 125.92 40.513 Q 125.65 40.135 125.65 39.667 L 125.65 39.667 L 125.65 39.667 Q 125.65 39.145 125.884 38.686 L 125.884 38.686 L 125.884 38.686 Q 126.118 38.227 126.577 37.894 L 126.577 37.894 L 126.577 37.894 Q 127.036 37.561 127.729 37.372 L 127.729 37.372 L 127.729 37.372 Q 128.422 37.183 129.322 37.183 L 129.322 37.183 L 129.322 37.183 Q 130.312 37.183 131.248 37.516 L 131.248 37.516 L 131.248 37.516 Q 132.184 37.849 132.832 38.299 L 132.832 38.299 L 132.112 39.253 L 132.112 39.253 Q 131.536 38.839 130.834 38.587 L 130.834 38.587 L 130.834 38.587 Q 130.132 38.335 129.322 38.335 L 129.322 38.335 L 129.322 38.335 Q 128.71 38.335 128.296 38.434 L 128.296 38.434 L 128.296 38.434 Q 127.882 38.533 127.63 38.704 L 127.63 38.704 L 127.63 38.704 Q 127.378 38.875 127.27 39.11 L 127.27 39.11 L 127.27 39.11 Q 127.162 39.343 127.162 39.595 L 127.162 39.595 L 127.162 39.595 Q 127.162 40.135 127.9 40.486 L 127.9 40.486 L 127.9 40.486 Q 128.638 40.837 129.826 41.143 L 129.826 41.143 L 129.826 41.143 Q 131.608 41.593 132.463 42.169 L 132.463 42.169 L 132.463 42.169 Q 133.318 42.745 133.318 43.753 L 133.318 43.753 L 133.318 43.753 Q 133.318 44.293 133.066 44.762 L 133.066 44.762 L 133.066 44.762 Q 132.814 45.229 132.319 45.589 L 132.319 45.589 L 132.319 45.589 Q 131.824 45.949 131.095 46.156 L 131.095 46.156 L 131.095 46.156 Q 130.366 46.363 129.43 46.363 L 129.43 46.363 L 129.43 46.363 Q 128.134 46.363 127.045 45.958 L 127.045 45.958 L 127.045 45.958 Q 125.956 45.553 125.146 44.995 L 125.146 44.995 L 125.146 44.995 Z  M 135.946 44.995 L 136.666 44.023 L 136.666 44.023 Q 137.404 44.563 138.25 44.887 L 138.25 44.887 L 138.25 44.887 Q 139.096 45.211 140.284 45.211 L 140.284 45.211 L 140.284 45.211 Q 141.472 45.211 142.048 44.815 L 142.048 44.815 L 142.048 44.815 Q 142.624 44.419 142.624 43.843 L 142.624 43.843 L 142.624 43.843 Q 142.624 43.339 142.003 42.943 L 142.003 42.943 L 142.003 42.943 Q 141.382 42.547 139.78 42.151 L 139.78 42.151 L 139.78 42.151 Q 139.096 41.989 138.493 41.756 L 138.493 41.756 L 138.493 41.756 Q 137.89 41.521 137.44 41.206 L 137.44 41.206 L 137.44 41.206 Q 136.99 40.891 136.72 40.513 L 136.72 40.513 L 136.72 40.513 Q 136.45 40.135 136.45 39.667 L 136.45 39.667 L 136.45 39.667 Q 136.45 39.145 136.684 38.686 L 136.684 38.686 L 136.684 38.686 Q 136.918 38.227 137.377 37.894 L 137.377 37.894 L 137.377 37.894 Q 137.836 37.561 138.529 37.372 L 138.529 37.372 L 138.529 37.372 Q 139.222 37.183 140.122 37.183 L 140.122 37.183 L 140.122 37.183 Q 141.112 37.183 142.048 37.516 L 142.048 37.516 L 142.048 37.516 Q 142.984 37.849 143.632 38.299 L 143.632 38.299 L 142.912 39.253 L 142.912 39.253 Q 142.336 38.839 141.634 38.587 L 141.634 38.587 L 141.634 38.587 Q 140.932 38.335 140.122 38.335 L 140.122 38.335 L 140.122 38.335 Q 139.51 38.335 139.096 38.434 L 139.096 38.434 L 139.096 38.434 Q 138.682 38.533 138.43 38.704 L 138.43 38.704 L 138.43 38.704 Q 138.178 38.875 138.07 39.11 L 138.07 39.11 L 138.07 39.11 Q 137.962 39.343 137.962 39.595 L 137.962 39.595 L 137.962 39.595 Q 137.962 40.135 138.7 40.486 L 138.7 40.486 L 138.7 40.486 Q 139.438 40.837 140.626 41.143 L 140.626 41.143 L 140.626 41.143 Q 142.408 41.593 143.263 42.169 L 143.263 42.169 L 143.263 42.169 Q 144.118 42.745 144.118 43.753 L 144.118 43.753 L 144.118 43.753 Q 144.118 44.293 143.866 44.762 L 143.866 44.762 L 143.866 44.762 Q 143.614 45.229 143.119 45.589 L 143.119 45.589 L 143.119 45.589 Q 142.624 45.949 141.895 46.156 L 141.895 46.156 L 141.895 46.156 Q 141.166 46.363 140.23 46.363 L 140.23 46.363 L 140.23 46.363 Q 138.934 46.363 137.845 45.958 L 137.845 45.958 L 137.845 45.958 Q 136.756 45.553 135.946 44.995 L 135.946 44.995 L 135.946 44.995 Z " fill-rule="evenodd" fill="rgb(171,171,171)"/></g></svg>